<?xml version="1.0" encoding="utf-8" standalone="no"?>
<!DOCTYPE svg PUBLIC "-//W3C//DTD SVG 1.1//EN"
  "http://www.w3.org/Graphics/SVG/1.1/DTD/svg11.dtd">
<svg xmlns:xlink="http://www.w3.org/1999/xlink" width="374.689315pt" height="308.369343pt" viewBox="0 0 374.689315 308.369343" xmlns="http://www.w3.org/2000/svg" version="1.1">
 <metadata>
  <rdf:RDF xmlns:dc="http://purl.org/dc/elements/1.1/" xmlns:cc="http://creativecommons.org/ns#" xmlns:rdf="http://www.w3.org/1999/02/22-rdf-syntax-ns#">
   <cc:Work>
    <dc:type rdf:resource="http://purl.org/dc/dcmitype/StillImage"/>
    <dc:date>2026-04-26T03:46:54.632511</dc:date>
    <dc:format>image/svg+xml</dc:format>
    <dc:creator>
     <cc:Agent>
      <dc:title>Matplotlib v3.10.8, https://matplotlib.org/</dc:title>
     </cc:Agent>
    </dc:creator>
   </cc:Work>
  </rdf:RDF>
 </metadata>
 <defs>
  <style type="text/css">*{stroke-linejoin: round; stroke-linecap: butt}</style>
 </defs>
 <g id="figure_1">
  <g id="patch_1">
   <path d="M 0 308.369343 
L 374.689315 308.369343 
L 374.689315 0 
L 0 0 
L 0 308.369343 
z
" style="fill: none"/>
  </g>
  <g id="axes_1">
   <g id="patch_2">
    <path d="M 43.638563 248.109617 
Q 190.69409 248.109617 336.296173 248.109617 
" clip-path="url(#p2c13b09322)" style="fill: none; stroke: #000000; stroke-width: 1.3; stroke-linecap: round"/>
    <path d="M 331.496173 245.709617 
L 336.296173 248.109617 
L 331.496173 250.509617 
z
" clip-path="url(#p2c13b09322)" style="stroke: #000000; stroke-width: 1.3; stroke-linecap: round"/>
   </g>
   <g id="patch_3">
    <path d="M 41.641644 246.110642 
Q 41.641644 139.121283 41.641644 33.585368 
" clip-path="url(#p2c13b09322)" style="fill: none; stroke: #000000; stroke-width: 1.3; stroke-linecap: round"/>
    <path d="M 39.241644 38.385368 
L 41.641644 33.585368 
L 44.041644 38.385368 
z
" clip-path="url(#p2c13b09322)" style="stroke: #000000; stroke-width: 1.3; stroke-linecap: round"/>
   </g>
   <g id="line2d_1">
    <path d="M 261.78411 248.109617 
L 261.78411 98.926027 
" clip-path="url(#p2c13b09322)" style="fill: none; stroke-dasharray: 0.9,1.485; stroke-dashoffset: 0; stroke: #555555; stroke-width: 0.9"/>
   </g>
   <g id="line2d_2">
    <path d="M 41.641644 98.926027 
L 261.78411 98.926027 
" clip-path="url(#p2c13b09322)" style="fill: none; stroke-dasharray: 0.9,1.485; stroke-dashoffset: 0; stroke: #555555; stroke-width: 0.9"/>
   </g>
   <g id="patch_4">
    <path d="M 41.641644 248.109617 
L 42.082811 243.380541 
L 42.523978 241.159131 
L 42.965146 239.403116 
L 43.406313 237.894247 
L 43.84748 236.546019 
L 44.288647 235.313372 
L 44.729815 234.169218 
L 45.170982 233.095736 
L 45.612149 232.080447 
L 46.053316 231.114199 
L 46.494484 230.190038 
L 46.935651 229.302534 
L 47.376818 228.447344 
L 47.817986 227.620931 
L 48.259153 226.820368 
L 48.70032 226.043198 
L 49.141487 225.287336 
L 49.582655 224.550993 
L 50.023822 223.832619 
L 50.464989 223.130864 
L 50.906156 222.444539 
L 51.347324 221.772594 
L 51.788491 221.114092 
L 52.229658 220.468198 
L 52.670825 219.834159 
L 53.111993 219.211296 
L 53.55316 218.598993 
L 53.994327 217.996689 
L 54.435495 217.403872 
L 54.876662 216.820074 
L 55.317829 216.244862 
L 55.758996 215.67784 
L 56.200164 215.118641 
L 56.641331 214.566924 
L 57.082498 214.022373 
L 57.523665 213.484695 
L 57.964833 212.953615 
L 58.406 212.428876 
L 58.847167 211.910241 
L 59.288334 211.397483 
L 59.729502 210.890391 
L 60.170669 210.388767 
L 60.611836 209.892424 
L 61.053004 209.401186 
L 61.494171 208.914885 
L 61.935338 208.433363 
L 62.376505 207.956473 
L 62.817673 207.484071 
L 63.25884 207.016023 
L 63.700007 206.552201 
L 64.141174 206.092485 
L 64.582342 205.636758 
L 65.023509 205.184909 
L 65.464676 204.736835 
L 65.905843 204.292433 
L 66.347011 203.851608 
L 66.788178 203.414268 
L 67.229345 202.980325 
L 67.670513 202.549694 
L 68.11168 202.122296 
L 68.552847 201.698052 
L 68.994014 201.276888 
L 69.435182 200.858732 
L 69.876349 200.443516 
L 70.317516 200.031174 
L 70.758683 199.621642 
L 71.199851 199.214858 
L 71.641018 198.810764 
L 72.082185 198.409303 
L 72.523352 198.010419 
L 72.96452 197.61406 
L 73.405687 197.220175 
L 73.846854 196.828713 
L 74.288022 196.439628 
L 74.729189 196.052872 
L 75.170356 195.668402 
L 75.611523 195.286174 
L 76.052691 194.906145 
L 76.493858 194.528276 
L 76.935025 194.152527 
L 77.376192 193.778859 
L 77.81736 193.407237 
L 78.258527 193.037623 
L 78.699694 192.669983 
L 79.140861 192.304283 
L 79.582029 191.940491 
L 80.023196 191.578574 
L 80.464363 191.218501 
L 80.905531 190.860241 
L 81.346698 190.503767 
L 81.787865 190.149049 
L 82.229032 189.796059 
L 82.6702 189.44477 
L 83.111367 189.095156 
L 83.552534 188.747191 
L 83.993701 188.40085 
L 84.434869 188.056109 
L 84.876036 187.712944 
L 85.317203 187.371332 
L 85.75837 187.03125 
L 86.199538 186.692676 
L 86.640705 186.355589 
L 87.081872 186.019967 
L 87.52304 185.685791 
L 87.964207 185.35304 
L 88.405374 185.021694 
L 88.846541 184.691734 
L 89.287709 184.363143 
L 89.728876 184.0359 
L 90.170043 183.70999 
L 90.61121 183.385393 
L 91.052378 183.062094 
L 91.493545 182.740075 
L 91.934712 182.41932 
L 92.375879 182.099814 
L 92.817047 181.781539 
L 93.258214 181.464482 
L 93.699381 181.148627 
L 94.140548 180.83396 
L 94.581716 180.520465 
L 95.022883 180.208129 
L 95.46405 179.896939 
L 95.905218 179.58688 
L 96.346385 179.27794 
L 96.787552 178.970105 
L 97.228719 178.663362 
L 97.669887 178.3577 
L 98.111054 178.053105 
L 98.552221 177.749566 
L 98.993388 177.447071 
L 99.434556 177.145609 
L 99.875723 176.845168 
L 100.31689 176.545736 
L 100.758057 176.247304 
L 101.199225 175.949859 
L 101.640392 175.653393 
L 102.081559 175.357893 
L 102.522727 175.063351 
L 102.963894 174.769756 
L 103.405061 174.477098 
L 103.846228 174.185368 
L 104.287396 173.894555 
L 104.728563 173.604652 
L 105.16973 173.315648 
L 105.610897 173.027535 
L 106.052065 172.740304 
L 106.493232 172.453945 
L 106.934399 172.168451 
L 107.375566 171.883814 
L 107.816734 171.600024 
L 108.257901 171.317073 
L 108.699068 171.034954 
L 109.140236 170.753659 
L 109.581403 170.47318 
L 110.02257 170.193509 
L 110.463737 169.914639 
L 110.904905 169.636563 
L 111.346072 169.359272 
L 111.787239 169.08276 
L 112.228406 168.807021 
L 112.669574 168.532046 
L 113.110741 168.257829 
L 113.551908 167.984363 
L 113.993075 167.711642 
L 114.434243 167.439659 
L 114.87541 167.168408 
L 115.316577 166.897882 
L 115.757745 166.628075 
L 116.198912 166.358981 
L 116.640079 166.090593 
L 117.081246 165.822907 
L 117.522414 165.555915 
L 117.963581 165.289612 
L 118.404748 165.023993 
L 118.845915 164.759051 
L 119.287083 164.494781 
L 119.72825 164.231177 
L 120.169417 163.968235 
L 120.610584 163.705949 
L 121.051752 163.444312 
L 121.492919 163.183322 
L 121.934086 162.922971 
L 122.375254 162.663255 
L 122.816421 162.404169 
L 123.257588 162.145708 
L 123.698755 161.887868 
L 124.139923 161.630642 
L 124.58109 161.374028 
L 125.022257 161.118019 
L 125.463424 160.862612 
L 125.904592 160.607801 
L 126.345759 160.353583 
L 126.786926 160.099952 
L 127.228093 159.846905 
L 127.669261 159.594437 
L 128.110428 159.342544 
L 128.551595 159.091221 
L 128.992763 158.840465 
L 129.43393 158.59027 
L 129.875097 158.340634 
L 130.316264 158.091553 
L 130.757432 157.843021 
L 131.198599 157.595035 
L 131.639766 157.347592 
L 132.080933 157.100687 
L 132.522101 156.854318 
L 132.963268 156.608479 
L 133.404435 156.363167 
L 133.845602 156.118379 
L 134.28677 155.874111 
L 134.727937 155.630359 
L 135.169104 155.38712 
L 135.610272 155.144391 
L 136.051439 154.902168 
L 136.492606 154.660447 
L 136.933773 154.419225 
L 137.374941 154.178499 
L 137.816108 153.938266 
L 138.257275 153.698522 
L 138.698442 153.459264 
L 139.13961 153.220489 
L 139.580777 152.982193 
L 140.021944 152.744374 
L 140.463111 152.507029 
L 140.904279 152.270154 
L 141.345446 152.033747 
L 141.786613 151.797804 
L 142.22778 151.562322 
L 142.668948 151.327299 
L 143.110115 151.092732 
L 143.551282 150.858618 
L 143.99245 150.624953 
L 144.433617 150.391736 
L 144.874784 150.158964 
L 145.315951 149.926633 
L 145.757119 149.694741 
L 146.198286 149.463285 
L 146.639453 149.232263 
L 147.08062 149.001672 
L 147.521788 148.771509 
L 147.962955 148.541772 
L 148.404122 148.312459 
L 148.845289 148.083566 
L 149.286457 147.855091 
L 149.727624 147.627033 
L 150.168791 147.399387 
L 150.609959 147.172153 
L 151.051126 146.945327 
L 151.492293 146.718907 
L 151.93346 146.492891 
L 152.374628 146.267276 
L 152.815795 146.042061 
L 153.256962 145.817242 
L 153.698129 145.592818 
L 154.139297 145.368786 
L 154.580464 145.145145 
L 155.021631 144.921891 
L 155.462798 144.699023 
L 155.903966 144.476539 
L 156.345133 144.254436 
L 156.7863 144.032713 
L 157.227468 143.811367 
L 157.668635 143.590396 
L 158.109802 143.369798 
L 158.550969 143.149571 
L 158.992137 142.929713 
L 159.433304 142.710222 
L 159.874471 142.491096 
L 160.315638 142.272334 
L 160.756806 142.053932 
L 161.197973 141.83589 
L 161.63914 141.618205 
L 162.080307 141.400875 
L 162.521475 141.183899 
L 162.962642 140.967275 
L 163.403809 140.751 
L 163.844977 140.535074 
L 164.286144 140.319493 
L 164.727311 140.104257 
L 165.168478 139.889364 
L 165.609646 139.674811 
L 166.050813 139.460598 
L 166.49198 139.246722 
L 166.933147 139.033181 
L 167.374315 138.819975 
L 167.815482 138.6071 
L 168.256649 138.394556 
L 168.697816 138.182341 
L 169.138984 137.970454 
L 169.580151 137.758891 
L 170.021318 137.547653 
L 170.462486 137.336738 
L 170.903653 137.126143 
L 171.34482 136.915867 
L 171.785987 136.705909 
L 172.227155 136.496267 
L 172.668322 136.286939 
L 173.109489 136.077925 
L 173.550656 135.869222 
L 173.991824 135.660829 
L 174.432991 135.452744 
L 174.874158 135.244967 
L 175.315325 135.037495 
L 175.756493 134.830327 
L 176.19766 134.623462 
L 176.638827 134.416898 
L 177.079995 134.210634 
L 177.521162 134.004668 
L 177.962329 133.798999 
L 178.403496 133.593626 
L 178.844664 133.388547 
L 179.285831 133.183761 
L 179.726998 132.979267 
L 180.168165 132.775062 
L 180.609333 132.571147 
L 181.0505 132.367519 
L 181.491667 132.164177 
L 181.932834 131.96112 
L 182.374002 131.758347 
L 182.815169 131.555856 
L 183.256336 131.353646 
L 183.697504 131.151716 
L 184.138671 130.950064 
L 184.579838 130.748689 
L 185.021005 130.547591 
L 185.462173 130.346768 
L 185.90334 130.146218 
L 186.344507 129.94594 
L 186.785674 129.745934 
L 187.226842 129.546198 
L 187.668009 129.34673 
L 188.109176 129.14753 
L 188.550343 128.948597 
L 188.991511 128.749929 
L 189.432678 128.551525 
L 189.873845 128.353384 
L 190.315012 128.155505 
L 190.75618 127.957887 
L 191.197347 127.760529 
L 191.638514 127.563429 
L 192.079682 127.366587 
L 192.520849 127.170001 
L 192.962016 126.97367 
L 193.403183 126.777594 
L 193.844351 126.58177 
L 194.285518 126.386199 
L 194.726685 126.190879 
L 195.167852 125.995809 
L 195.60902 125.800988 
L 196.050187 125.606415 
L 196.491354 125.412089 
L 196.932521 125.218008 
L 197.373689 125.024173 
L 197.814856 124.830581 
L 198.256023 124.637233 
L 198.697191 124.444126 
L 199.138358 124.25126 
L 199.579525 124.058634 
L 200.020692 123.866247 
L 200.46186 123.674099 
L 200.903027 123.482187 
L 201.344194 123.290511 
L 201.785361 123.099071 
L 202.226529 122.907865 
L 202.667696 122.716892 
L 203.108863 122.526151 
L 203.55003 122.335642 
L 203.991198 122.145364 
L 204.432365 121.955315 
L 204.873532 121.765495 
L 205.3147 121.575903 
L 205.755867 121.386538 
L 206.197034 121.197399 
L 206.638201 121.008485 
L 207.079369 120.819796 
L 207.520536 120.63133 
L 207.961703 120.443087 
L 208.40287 120.255065 
L 208.844038 120.067265 
L 209.285205 119.879684 
L 209.726372 119.692323 
L 210.167539 119.50518 
L 210.608707 119.318255 
L 211.049874 119.131547 
L 211.491041 118.945055 
L 211.932209 118.758777 
L 212.373376 118.572714 
L 212.814543 118.386865 
L 213.25571 118.201229 
L 213.696878 118.015804 
L 214.138045 117.830591 
L 214.579212 117.645588 
L 215.020379 117.460795 
L 215.461547 117.27621 
L 215.902714 117.091834 
L 216.343881 116.907665 
L 216.785048 116.723702 
L 217.226216 116.539946 
L 217.667383 116.356394 
L 218.10855 116.173047 
L 218.549718 115.989903 
L 218.990885 115.806963 
L 219.432052 115.624224 
L 219.873219 115.441687 
L 220.314387 115.259351 
L 220.755554 115.077214 
L 221.196721 114.895277 
L 221.637888 114.713539 
L 222.079056 114.531998 
L 222.520223 114.350654 
L 222.96139 114.169507 
L 223.402557 113.988556 
L 223.843725 113.8078 
L 224.284892 113.627238 
L 224.726059 113.44687 
L 225.167227 113.266695 
L 225.608394 113.086712 
L 226.049561 112.906921 
L 226.490728 112.727322 
L 226.931896 112.547912 
L 227.373063 112.368692 
L 227.81423 112.189662 
L 228.255397 112.01082 
L 228.696565 111.832165 
L 229.137732 111.653698 
L 229.578899 111.475418 
L 230.020066 111.297323 
L 230.461234 111.119414 
L 230.902401 110.941689 
L 231.343568 110.764148 
L 231.784735 110.586791 
L 232.225903 110.409616 
L 232.66707 110.232624 
L 233.108237 110.055813 
L 233.549405 109.879183 
L 233.990572 109.702734 
L 234.431739 109.526464 
L 234.872906 109.350374 
L 235.314074 109.174462 
L 235.755241 108.998728 
L 236.196408 108.823172 
L 236.637575 108.647792 
L 237.078743 108.472589 
L 237.51991 108.297561 
L 237.961077 108.122709 
L 238.402244 107.948031 
L 238.843412 107.773527 
L 239.284579 107.599196 
L 239.725746 107.425038 
L 240.166914 107.251053 
L 240.608081 107.077239 
L 241.049248 106.903597 
L 241.490415 106.730125 
L 241.931583 106.556823 
L 242.37275 106.383691 
L 242.813917 106.210728 
L 243.255084 106.037933 
L 243.696252 105.865307 
L 244.137419 105.692847 
L 244.578586 105.520555 
L 245.019753 105.348429 
L 245.460921 105.176469 
L 245.902088 105.004674 
L 246.343255 104.833045 
L 246.784423 104.661579 
L 247.22559 104.490277 
L 247.666757 104.319139 
L 248.107924 104.148163 
L 248.549092 103.97735 
L 248.990259 103.806698 
L 249.431426 103.636208 
L 249.872593 103.465879 
L 250.313761 103.295709 
L 250.754928 103.1257 
L 251.196095 102.95585 
L 251.637262 102.786159 
L 252.07843 102.616626 
L 252.519597 102.447251 
L 252.960764 102.278034 
L 253.401932 102.108973 
L 253.843099 101.940069 
L 254.284266 101.771321 
L 254.725433 101.602729 
L 255.166601 101.434291 
L 255.607768 101.266008 
L 256.048935 101.09788 
L 256.490102 100.929904 
L 256.93127 100.762083 
L 257.372437 100.594414 
L 257.813604 100.426897 
L 258.254771 100.259532 
L 258.695939 100.092319 
L 259.137106 99.925256 
L 259.578273 99.758344 
L 260.019441 99.591582 
L 260.460608 99.42497 
L 260.901775 99.258507 
L 261.342942 99.092193 
L 261.78411 98.926027 
L 261.78411 248.109617 
L 41.641644 248.109617 
z
" clip-path="url(#p2c13b09322)" style="fill: #6aaed6; opacity: 0.65"/>
   </g>
   <g id="patch_5">
    <path d="M 41.641644 248.109617 
L 41.6427 247.944179 
L 41.64532 247.778741 
L 41.649271 247.613304 
L 41.654445 247.447866 
L 41.660773 247.282428 
L 41.668203 247.116991 
L 41.676697 246.951553 
L 41.686221 246.786115 
L 41.696748 246.620677 
L 41.708255 246.45524 
L 41.720722 246.289802 
L 41.734129 246.124364 
L 41.748462 245.958926 
L 41.763705 245.793489 
L 41.779845 245.628051 
L 41.79687 245.462613 
L 41.814767 245.297176 
L 41.833528 245.131738 
L 41.853141 244.9663 
L 41.873598 244.800862 
L 41.89489 244.635425 
L 41.917009 244.469987 
L 41.939947 244.304549 
L 41.963698 244.139112 
L 41.988253 243.973674 
L 42.013607 243.808236 
L 42.039754 243.642798 
L 42.066687 243.477361 
L 42.0944 243.311923 
L 42.122889 243.146485 
L 42.152148 242.981047 
L 42.182172 242.81561 
L 42.212956 242.650172 
L 42.244495 242.484734 
L 42.276785 242.319297 
L 42.309823 242.153859 
L 42.343602 241.988421 
L 42.37812 241.822983 
L 42.413372 241.657546 
L 42.449355 241.492108 
L 42.486065 241.32667 
L 42.523498 241.161232 
L 42.561651 240.995795 
L 42.600521 240.830357 
L 42.640104 240.664919 
L 42.680397 240.499482 
L 42.721396 240.334044 
L 42.7631 240.168606 
L 42.805505 240.003168 
L 42.848607 239.837731 
L 42.892405 239.672293 
L 42.936895 239.506855 
L 42.982076 239.341417 
L 43.027943 239.17598 
L 43.074495 239.010542 
L 43.121729 238.845104 
L 43.169642 238.679667 
L 43.218233 238.514229 
L 43.267499 238.348791 
L 43.317437 238.183353 
L 43.368045 238.017916 
L 43.419322 237.852478 
L 43.471265 237.68704 
L 43.523871 237.521603 
L 43.577139 237.356165 
L 43.631067 237.190727 
L 43.685653 237.025289 
L 43.740894 236.859852 
L 43.796789 236.694414 
L 43.853336 236.528976 
L 43.910532 236.363538 
L 43.968377 236.198101 
L 44.026868 236.032663 
L 44.086004 235.867225 
L 44.145783 235.701788 
L 44.206202 235.53635 
L 44.267261 235.370912 
L 44.328958 235.205474 
L 44.39129 235.040037 
L 44.454258 234.874599 
L 44.517858 234.709161 
L 44.582089 234.543723 
L 44.64695 234.378286 
L 44.712439 234.212848 
L 44.778555 234.04741 
L 44.845296 233.881973 
L 44.912661 233.716535 
L 44.980648 233.551097 
L 45.049256 233.385659 
L 45.118483 233.220222 
L 45.188329 233.054784 
L 45.258791 232.889346 
L 45.329869 232.723908 
L 45.401561 232.558471 
L 45.473865 232.393033 
L 45.546781 232.227595 
L 45.620308 232.062158 
L 45.694443 231.89672 
L 45.769186 231.731282 
L 45.844535 231.565844 
L 45.920489 231.400407 
L 45.997048 231.234969 
L 46.074209 231.069531 
L 46.151972 230.904094 
L 46.230335 230.738656 
L 46.309298 230.573218 
L 46.388859 230.40778 
L 46.469017 230.242343 
L 46.549771 230.076905 
L 46.63112 229.911467 
L 46.713063 229.746029 
L 46.795598 229.580592 
L 46.878725 229.415154 
L 46.962443 229.249716 
L 47.04675 229.084279 
L 47.131646 228.918841 
L 47.217129 228.753403 
L 47.303199 228.587965 
L 47.389854 228.422528 
L 47.477094 228.25709 
L 47.564917 228.091652 
L 47.653323 227.926214 
L 47.742311 227.760777 
L 47.831879 227.595339 
L 47.922027 227.429901 
L 48.012754 227.264464 
L 48.104058 227.099026 
L 48.19594 226.933588 
L 48.288398 226.76815 
L 48.381431 226.602713 
L 48.475038 226.437275 
L 48.569218 226.271837 
L 48.663971 226.1064 
L 48.759296 225.940962 
L 48.855191 225.775524 
L 48.951657 225.610086 
L 49.048692 225.444649 
L 49.146294 225.279211 
L 49.244465 225.113773 
L 49.343202 224.948335 
L 49.442505 224.782898 
L 49.542372 224.61746 
L 49.642804 224.452022 
L 49.7438 224.286585 
L 49.845358 224.121147 
L 49.947478 223.955709 
L 50.050159 223.790271 
L 50.153401 223.624834 
L 50.257202 223.459396 
L 50.361562 223.293958 
L 50.466479 223.12852 
L 50.571955 222.963083 
L 50.677987 222.797645 
L 50.784574 222.632207 
L 50.891717 222.46677 
L 50.999414 222.301332 
L 51.107665 222.135894 
L 51.21647 221.970456 
L 51.325826 221.805019 
L 51.435734 221.639581 
L 51.546193 221.474143 
L 51.657202 221.308705 
L 51.76876 221.143268 
L 51.880868 220.97783 
L 51.993524 220.812392 
L 52.106727 220.646955 
L 52.220477 220.481517 
L 52.334773 220.316079 
L 52.449615 220.150641 
L 52.565002 219.985204 
L 52.680933 219.819766 
L 52.797408 219.654328 
L 52.914426 219.488891 
L 53.031986 219.323453 
L 53.150088 219.158015 
L 53.268731 218.992577 
L 53.387914 218.82714 
L 53.507638 218.661702 
L 53.627901 218.496264 
L 53.748702 218.330826 
L 53.870042 218.165389 
L 53.991919 217.999951 
L 54.114332 217.834513 
L 54.237283 217.669076 
L 54.360769 217.503638 
L 54.48479 217.3382 
L 54.609346 217.172762 
L 54.734435 217.007325 
L 54.860058 216.841887 
L 54.986214 216.676449 
L 55.112903 216.511011 
L 55.240123 216.345574 
L 55.367874 216.180136 
L 55.496156 216.014698 
L 55.624968 215.849261 
L 55.754309 215.683823 
L 55.88418 215.518385 
L 56.014579 215.352947 
L 56.145506 215.18751 
L 56.27696 215.022072 
L 56.408941 214.856634 
L 56.541449 214.691196 
L 56.674482 214.525759 
L 56.808041 214.360321 
L 56.942124 214.194883 
L 57.076732 214.029446 
L 57.211864 213.864008 
L 57.347518 213.69857 
L 57.483696 213.533132 
L 57.620396 213.367695 
L 57.757617 213.202257 
L 57.89536 213.036819 
L 58.033623 212.871382 
L 58.172407 212.705944 
L 58.311711 212.540506 
L 58.451534 212.375068 
L 58.591876 212.209631 
L 58.732736 212.044193 
L 58.874114 211.878755 
L 59.016009 211.713317 
L 59.158421 211.54788 
L 59.30135 211.382442 
L 59.444795 211.217004 
L 59.588755 211.051567 
L 59.73323 210.886129 
L 59.87822 210.720691 
L 60.023724 210.555253 
L 60.169742 210.389816 
L 60.316273 210.224378 
L 60.463317 210.05894 
L 60.610873 209.893502 
L 60.758941 209.728065 
L 60.907521 209.562627 
L 61.056611 209.397189 
L 61.206212 209.231752 
L 61.356324 209.066314 
L 61.506944 208.900876 
L 61.658075 208.735438 
L 61.809714 208.570001 
L 61.961861 208.404563 
L 62.114517 208.239125 
L 62.26768 208.073688 
L 62.42135 207.90825 
L 62.575528 207.742812 
L 62.730211 207.577374 
L 62.8854 207.411937 
L 63.041095 207.246499 
L 63.197295 207.081061 
L 63.354 206.915623 
L 63.511208 206.750186 
L 63.668921 206.584748 
L 63.827137 206.41931 
L 63.985857 206.253873 
L 64.145079 206.088435 
L 64.304803 205.922997 
L 64.465029 205.757559 
L 64.625756 205.592122 
L 64.786985 205.426684 
L 64.948715 205.261246 
L 65.110944 205.095808 
L 65.273674 204.930371 
L 65.436903 204.764933 
L 65.600632 204.599495 
L 65.764859 204.434058 
L 65.929584 204.26862 
L 66.094808 204.103182 
L 66.260529 203.937744 
L 66.426748 203.772307 
L 66.593464 203.606869 
L 66.760676 203.441431 
L 66.928384 203.275993 
L 67.096588 203.110556 
L 67.265287 202.945118 
L 67.434482 202.77968 
L 67.604171 202.614243 
L 67.774355 202.448805 
L 67.945033 202.283367 
L 68.116204 202.117929 
L 68.287869 201.952492 
L 68.460026 201.787054 
L 68.632676 201.621616 
L 68.805819 201.456179 
L 68.979453 201.290741 
L 69.153579 201.125303 
L 69.328195 200.959865 
L 69.503303 200.794428 
L 69.678902 200.62899 
L 69.85499 200.463552 
L 70.031568 200.298114 
L 70.208636 200.132677 
L 70.386193 199.967239 
L 70.564239 199.801801 
L 70.742773 199.636364 
L 70.921795 199.470926 
L 71.101305 199.305488 
L 71.281303 199.14005 
L 71.461787 198.974613 
L 71.642759 198.809175 
L 71.824217 198.643737 
L 72.006161 198.478299 
L 72.188591 198.312862 
L 72.371506 198.147424 
L 72.554907 197.981986 
L 72.738793 197.816549 
L 72.923163 197.651111 
L 73.108017 197.485673 
L 73.293355 197.320235 
L 73.479177 197.154798 
L 73.665482 196.98936 
L 73.85227 196.823922 
L 74.039541 196.658484 
L 74.227294 196.493047 
L 74.415529 196.327609 
L 74.604246 196.162171 
L 74.793444 195.996734 
L 74.983123 195.831296 
L 75.173284 195.665858 
L 75.363924 195.50042 
L 75.555045 195.334983 
L 75.746646 195.169545 
L 75.938726 195.004107 
L 76.131286 194.83867 
L 76.324325 194.673232 
L 76.517842 194.507794 
L 76.711838 194.342356 
L 76.906312 194.176919 
L 77.101264 194.011481 
L 77.296693 193.846043 
L 77.492599 193.680605 
L 77.688983 193.515168 
L 77.885843 193.34973 
L 78.08318 193.184292 
L 78.280992 193.018855 
L 78.47928 192.853417 
L 78.678044 192.687979 
L 78.877284 192.522541 
L 79.076998 192.357104 
L 79.277186 192.191666 
L 79.477849 192.026228 
L 79.678987 191.86079 
L 79.880598 191.695353 
L 80.082682 191.529915 
L 80.28524 191.364477 
L 80.488271 191.19904 
L 80.691774 191.033602 
L 80.89575 190.868164 
L 81.100199 190.702726 
L 81.305119 190.537289 
L 81.51051 190.371851 
L 81.716373 190.206413 
L 81.922707 190.040976 
L 82.129512 189.875538 
L 82.336788 189.7101 
L 82.544534 189.544662 
L 82.752749 189.379225 
L 82.961435 189.213787 
L 83.17059 189.048349 
L 83.380214 188.882911 
L 83.590307 188.717474 
L 83.800869 188.552036 
L 84.011899 188.386598 
L 84.223398 188.221161 
L 84.435364 188.055723 
L 84.647798 187.890285 
L 84.8607 187.724847 
L 85.074068 187.55941 
L 85.287904 187.393972 
L 85.502206 187.228534 
L 85.716974 187.063096 
L 85.932209 186.897659 
L 86.14791 186.732221 
L 86.364076 186.566783 
L 86.580707 186.401346 
L 86.797804 186.235908 
L 87.015365 186.07047 
L 87.233392 185.905032 
L 87.451882 185.739595 
L 87.670837 185.574157 
L 87.890255 185.408719 
L 88.110137 185.243281 
L 88.330483 185.077844 
L 88.551292 184.912406 
L 88.772563 184.746968 
L 88.994298 184.581531 
L 89.216494 184.416093 
L 89.439153 184.250655 
L 89.662274 184.085217 
L 89.885857 183.91978 
L 90.109901 183.754342 
L 90.334406 183.588904 
L 90.559372 183.423467 
L 90.784799 183.258029 
L 91.010687 183.092591 
L 91.237035 182.927153 
L 91.463843 182.761716 
L 91.691111 182.596278 
L 91.918838 182.43084 
L 92.147025 182.265402 
L 92.37567 182.099965 
L 92.604775 181.934527 
L 92.834339 181.769089 
L 93.06436 181.603652 
L 93.29484 181.438214 
L 93.525778 181.272776 
L 93.757174 181.107338 
L 93.989027 180.941901 
L 94.221338 180.776463 
L 94.454106 180.611025 
L 94.68733 180.445587 
L 94.921011 180.28015 
L 95.155149 180.114712 
L 95.389743 179.949274 
L 95.624793 179.783837 
L 95.860298 179.618399 
L 96.096259 179.452961 
L 96.332675 179.287523 
L 96.569547 179.122086 
L 96.806873 178.956648 
L 97.044654 178.79121 
L 97.282889 178.625772 
L 97.521579 178.460335 
L 97.760722 178.294897 
L 98.00032 178.129459 
L 98.240371 177.964022 
L 98.480875 177.798584 
L 98.721832 177.633146 
L 98.963243 177.467708 
L 99.205106 177.302271 
L 99.447421 177.136833 
L 99.690189 176.971395 
L 99.933409 176.805958 
L 100.177081 176.64052 
L 100.421204 176.475082 
L 100.665779 176.309644 
L 100.910805 176.144207 
L 101.156282 175.978769 
L 101.40221 175.813331 
L 101.648589 175.647893 
L 101.895418 175.482456 
L 102.142697 175.317018 
L 102.390427 175.15158 
L 102.638606 174.986143 
L 102.887234 174.820705 
L 103.136313 174.655267 
L 103.38584 174.489829 
L 103.635816 174.324392 
L 103.886241 174.158954 
L 104.137115 173.993516 
L 104.388437 173.828078 
L 104.640207 173.662641 
L 104.892425 173.497203 
L 105.145091 173.331765 
L 105.398205 173.166328 
L 105.651766 173.00089 
L 105.905774 172.835452 
L 106.160229 172.670014 
L 106.415131 172.504577 
L 106.67048 172.339139 
L 106.926275 172.173701 
L 107.182516 172.008264 
L 107.439203 171.842826 
L 107.696336 171.677388 
L 107.953915 171.51195 
L 108.211939 171.346513 
L 108.470409 171.181075 
L 108.729323 171.015637 
L 108.988683 170.850199 
L 109.248487 170.684762 
L 109.508735 170.519324 
L 109.769428 170.353886 
L 110.030565 170.188449 
L 110.292146 170.023011 
L 110.55417 169.857573 
L 110.816639 169.692135 
L 111.07955 169.526698 
L 111.342905 169.36126 
L 111.606702 169.195822 
L 111.870943 169.030384 
L 112.135626 168.864947 
L 112.400751 168.699509 
L 112.666319 168.534071 
L 112.932329 168.368634 
L 113.198781 168.203196 
L 113.465674 168.037758 
L 113.733009 167.87232 
L 114.000785 167.706883 
L 114.269003 167.541445 
L 114.537661 167.376007 
L 114.80676 167.210569 
L 115.0763 167.045132 
L 115.34628 166.879694 
L 115.6167 166.714256 
L 115.887561 166.548819 
L 116.158861 166.383381 
L 116.430601 166.217943 
L 116.702781 166.052505 
L 116.9754 165.887068 
L 117.248458 165.72163 
L 117.521955 165.556192 
L 41.641644 165.556192 
L 41.641644 248.109617 
z
" clip-path="url(#p2c13b09322)" style="fill: #e07b54; opacity: 0.65"/>
   </g>
   <g id="patch_6">
    <path d="M 117.521955 165.556192 
L 117.883514 165.337892 
L 118.245073 165.120052 
L 118.606633 164.902668 
L 118.968192 164.685737 
L 119.329751 164.469257 
L 119.69131 164.253224 
L 120.05287 164.037635 
L 120.414429 163.822488 
L 120.775988 163.607779 
L 121.137548 163.393506 
L 121.499107 163.179665 
L 121.860666 162.966255 
L 122.222225 162.753271 
L 122.583785 162.540712 
L 122.945344 162.328574 
L 123.306903 162.116855 
L 123.668463 161.905553 
L 124.030022 161.694663 
L 124.391581 161.484185 
L 124.75314 161.274115 
L 125.1147 161.064451 
L 125.476259 160.85519 
L 125.837818 160.64633 
L 126.199378 160.437868 
L 126.560937 160.229802 
L 126.922496 160.02213 
L 127.284055 159.814848 
L 127.645615 159.607954 
L 128.007174 159.401447 
L 128.368733 159.195324 
L 128.730293 158.989583 
L 129.091852 158.78422 
L 129.453411 158.579235 
L 129.81497 158.374625 
L 130.17653 158.170387 
L 130.538089 157.966519 
L 130.899648 157.76302 
L 131.261208 157.559886 
L 131.622767 157.357117 
L 131.984326 157.154709 
L 132.345885 156.952661 
L 132.707445 156.750971 
L 133.069004 156.549636 
L 133.430563 156.348655 
L 133.792123 156.148025 
L 134.153682 155.947745 
L 134.515241 155.747813 
L 134.8768 155.548226 
L 135.23836 155.348982 
L 135.599919 155.150081 
L 135.961478 154.95152 
L 136.323038 154.753296 
L 136.684597 154.555409 
L 137.046156 154.357856 
L 137.407715 154.160635 
L 137.769275 153.963745 
L 138.130834 153.767184 
L 138.492393 153.57095 
L 138.853953 153.375041 
L 139.215512 153.179456 
L 139.577071 152.984193 
L 139.93863 152.78925 
L 140.30019 152.594625 
L 140.661749 152.400317 
L 141.023308 152.206324 
L 141.384868 152.012645 
L 141.746427 151.819277 
L 142.107986 151.626219 
L 142.469545 151.43347 
L 142.831105 151.241028 
L 143.192664 151.048892 
L 143.554223 150.857059 
L 143.915783 150.665528 
L 144.277342 150.474298 
L 144.638901 150.283367 
L 145.00046 150.092734 
L 145.36202 149.902397 
L 145.723579 149.712355 
L 146.085138 149.522606 
L 146.446698 149.333148 
L 146.808257 149.143981 
L 147.169816 148.955103 
L 147.531375 148.766512 
L 147.892935 148.578207 
L 148.254494 148.390186 
L 148.616053 148.202449 
L 148.977613 148.014994 
L 149.339172 147.827819 
L 149.700731 147.640923 
L 150.06229 147.454305 
L 150.42385 147.267963 
L 150.785409 147.081896 
L 151.146968 146.896103 
L 151.508528 146.710583 
L 151.870087 146.525333 
L 152.231646 146.340354 
L 152.593205 146.155643 
L 152.954765 145.971199 
L 153.316324 145.787022 
L 153.677883 145.603109 
L 154.039443 145.41946 
L 154.401002 145.236073 
L 154.762561 145.052947 
L 155.12412 144.870082 
L 155.48568 144.687475 
L 155.847239 144.505126 
L 156.208798 144.323033 
L 156.570358 144.141195 
L 156.931917 143.959611 
L 157.293476 143.778281 
L 157.655035 143.597202 
L 158.016595 143.416373 
L 158.378154 143.235795 
L 158.739713 143.055464 
L 159.101273 142.875381 
L 159.462832 142.695544 
L 159.824391 142.515953 
L 160.18595 142.336605 
L 160.54751 142.1575 
L 160.909069 141.978637 
L 161.270628 141.800015 
L 161.632188 141.621633 
L 161.993747 141.443489 
L 162.355306 141.265583 
L 162.716865 141.087914 
L 163.078425 140.910481 
L 163.439984 140.733282 
L 163.801543 140.556317 
L 164.163103 140.379584 
L 164.524662 140.203083 
L 164.886221 140.026813 
L 165.24778 139.850772 
L 165.60934 139.67496 
L 165.970899 139.499376 
L 166.332458 139.324018 
L 166.694018 139.148887 
L 167.055577 138.97398 
L 167.417136 138.799298 
L 167.778695 138.624838 
L 168.140255 138.4506 
L 168.501814 138.276584 
L 168.863373 138.102788 
L 169.224933 137.929211 
L 169.586492 137.755853 
L 169.948051 137.582712 
L 170.30961 137.409789 
L 170.67117 137.23708 
L 171.032729 137.064587 
L 171.394288 136.892308 
L 171.755848 136.720243 
L 172.117407 136.548389 
L 172.478966 136.376747 
L 172.840525 136.205316 
L 173.202085 136.034095 
L 173.563644 135.863082 
L 173.925203 135.692278 
L 174.286763 135.521681 
L 174.648322 135.351291 
L 175.009881 135.181107 
L 175.37144 135.011127 
L 175.733 134.841351 
L 176.094559 134.671779 
L 176.456118 134.50241 
L 176.817678 134.333242 
L 177.179237 134.164275 
L 177.540796 133.995508 
L 177.902355 133.826941 
L 178.263915 133.658573 
L 178.625474 133.490402 
L 178.987033 133.322429 
L 179.348593 133.154651 
L 179.710152 132.98707 
L 180.071711 132.819684 
L 180.43327 132.652491 
L 180.79483 132.485493 
L 181.156389 132.318687 
L 181.517948 132.152073 
L 181.879508 131.98565 
L 182.241067 131.819418 
L 182.602626 131.653375 
L 182.964185 131.487522 
L 183.325745 131.321858 
L 183.687304 131.156381 
L 184.048863 130.991091 
L 184.410423 130.825988 
L 184.771982 130.66107 
L 185.133541 130.496338 
L 185.4951 130.33179 
L 185.85666 130.167425 
L 186.218219 130.003244 
L 186.579778 129.839245 
L 186.941338 129.675427 
L 187.302897 129.511791 
L 187.664456 129.348335 
L 188.026015 129.185059 
L 188.387575 129.021962 
L 188.749134 128.859044 
L 189.110693 128.696303 
L 189.472253 128.53374 
L 189.833812 128.371353 
L 190.195371 128.209143 
L 190.55693 128.047107 
L 190.91849 127.885247 
L 191.280049 127.72356 
L 191.641608 127.562048 
L 192.003168 127.400708 
L 192.364727 127.23954 
L 192.726286 127.078544 
L 193.087845 126.917719 
L 193.449405 126.757065 
L 193.810964 126.596581 
L 194.172523 126.436266 
L 194.534083 126.27612 
L 194.895642 126.116142 
L 195.257201 125.956332 
L 195.61876 125.796689 
L 195.98032 125.637213 
L 196.341879 125.477902 
L 196.703438 125.318757 
L 197.064998 125.159777 
L 197.426557 125.000961 
L 197.788116 124.842308 
L 198.149675 124.683819 
L 198.511235 124.525493 
L 198.872794 124.367328 
L 199.234353 124.209325 
L 199.595913 124.051484 
L 199.957472 123.893802 
L 200.319031 123.736281 
L 200.68059 123.578919 
L 201.04215 123.421716 
L 201.403709 123.264672 
L 201.765268 123.107785 
L 202.126828 122.951056 
L 202.488387 122.794483 
L 202.849946 122.638067 
L 203.211505 122.481807 
L 203.573065 122.325702 
L 203.934624 122.169752 
L 204.296183 122.013956 
L 204.657743 121.858314 
L 205.019302 121.702825 
L 205.380861 121.54749 
L 205.74242 121.392306 
L 206.10398 121.237275 
L 206.465539 121.082395 
L 206.827098 120.927666 
L 207.188658 120.773087 
L 207.550217 120.618658 
L 207.911776 120.464379 
L 208.273335 120.310249 
L 208.634895 120.156267 
L 208.996454 120.002434 
L 209.358013 119.848748 
L 209.719573 119.695209 
L 210.081132 119.541817 
L 210.442691 119.388572 
L 210.80425 119.235472 
L 211.16581 119.082517 
L 211.527369 118.929708 
L 211.888928 118.777042 
L 212.250488 118.624521 
L 212.612047 118.472144 
L 212.973606 118.319909 
L 213.335165 118.167818 
L 213.696725 118.015868 
L 214.058284 117.864061 
L 214.419843 117.712395 
L 214.781403 117.56087 
L 215.142962 117.409485 
L 215.504521 117.258241 
L 215.86608 117.107136 
L 216.22764 116.956171 
L 216.589199 116.805344 
L 216.950758 116.654656 
L 217.312318 116.504106 
L 217.673877 116.353694 
L 218.035436 116.203419 
L 218.396995 116.053281 
L 218.758555 115.903279 
L 219.120114 115.753413 
L 219.481673 115.603683 
L 219.843233 115.454088 
L 220.204792 115.304628 
L 220.566351 115.155302 
L 220.92791 115.006111 
L 221.28947 114.857053 
L 221.651029 114.708128 
L 222.012588 114.559337 
L 222.374147 114.410677 
L 222.735707 114.26215 
L 223.097266 114.113755 
L 223.458825 113.965491 
L 223.820385 113.817358 
L 224.181944 113.669355 
L 224.543503 113.521483 
L 224.905062 113.373741 
L 225.266622 113.226128 
L 225.628181 113.078644 
L 225.98974 112.931289 
L 226.3513 112.784063 
L 226.712859 112.636964 
L 227.074418 112.489993 
L 227.435977 112.343149 
L 227.797537 112.196433 
L 228.159096 112.049843 
L 228.520655 111.903379 
L 228.882215 111.757041 
L 229.243774 111.610829 
L 229.605333 111.464741 
L 229.966892 111.318779 
L 230.328452 111.172941 
L 230.690011 111.027227 
L 231.05157 110.881638 
L 231.41313 110.736171 
L 231.774689 110.590828 
L 232.136248 110.445607 
L 232.497807 110.300509 
L 232.859367 110.155533 
L 233.220926 110.010679 
L 233.582485 109.865946 
L 233.944045 109.721335 
L 234.305604 109.576844 
L 234.667163 109.432473 
L 235.028722 109.288223 
L 235.390282 109.144093 
L 235.751841 109.000082 
L 236.1134 108.85619 
L 236.47496 108.712417 
L 236.836519 108.568763 
L 237.198078 108.425227 
L 237.559637 108.281808 
L 237.921197 108.138508 
L 238.282756 107.995324 
L 238.644315 107.852258 
L 239.005875 107.709308 
L 239.367434 107.566474 
L 239.728993 107.423757 
L 240.090552 107.281155 
L 240.452112 107.138669 
L 240.813671 106.996298 
L 241.17523 106.854042 
L 241.53679 106.7119 
L 241.898349 106.569872 
L 242.259908 106.427959 
L 242.621467 106.286159 
L 242.983027 106.144472 
L 243.344586 106.002898 
L 243.706145 105.861437 
L 244.067705 105.720089 
L 244.429264 105.578852 
L 244.790823 105.437728 
L 245.152382 105.296715 
L 245.513942 105.155814 
L 245.875501 105.015023 
L 246.23706 104.874343 
L 246.59862 104.733774 
L 246.960179 104.593315 
L 247.321738 104.452965 
L 247.683297 104.312726 
L 248.044857 104.172595 
L 248.406416 104.032574 
L 248.767975 103.892661 
L 249.129535 103.752857 
L 249.491094 103.613162 
L 249.852653 103.473574 
L 250.214212 103.334094 
L 250.575772 103.194721 
L 250.937331 103.055455 
L 251.29889 102.916297 
L 251.66045 102.777245 
L 252.022009 102.638299 
L 252.383568 102.499459 
L 252.745127 102.360726 
L 253.106687 102.222097 
L 253.468246 102.083574 
L 253.829805 101.945156 
L 254.191365 101.806843 
L 254.552924 101.668635 
L 254.914483 101.530531 
L 255.276042 101.39253 
L 255.637602 101.254634 
L 255.999161 101.116841 
L 256.36072 100.979151 
L 256.72228 100.841564 
L 257.083839 100.70408 
L 257.445398 100.566699 
L 257.806957 100.42942 
L 258.168517 100.292242 
L 258.530076 100.155167 
L 258.891635 100.018193 
L 259.253195 99.88132 
L 259.614754 99.744549 
L 259.976313 99.607878 
L 260.337872 99.471308 
L 260.699432 99.334838 
L 261.060991 99.198468 
L 261.42255 99.062198 
L 261.78411 98.926027 
L 261.78411 165.556192 
L 261.78411 165.556192 
L 261.42255 165.556192 
L 261.060991 165.556192 
L 260.699432 165.556192 
L 260.337872 165.556192 
L 259.976313 165.556192 
L 259.614754 165.556192 
L 259.253195 165.556192 
L 258.891635 165.556192 
L 258.530076 165.556192 
L 258.168517 165.556192 
L 257.806957 165.556192 
L 257.445398 165.556192 
L 257.083839 165.556192 
L 256.72228 165.556192 
L 256.36072 165.556192 
L 255.999161 165.556192 
L 255.637602 165.556192 
L 255.276042 165.556192 
L 254.914483 165.556192 
L 254.552924 165.556192 
L 254.191365 165.556192 
L 253.829805 165.556192 
L 253.468246 165.556192 
L 253.106687 165.556192 
L 252.745127 165.556192 
L 252.383568 165.556192 
L 252.022009 165.556192 
L 251.66045 165.556192 
L 251.29889 165.556192 
L 250.937331 165.556192 
L 250.575772 165.556192 
L 250.214212 165.556192 
L 249.852653 165.556192 
L 249.491094 165.556192 
L 249.129535 165.556192 
L 248.767975 165.556192 
L 248.406416 165.556192 
L 248.044857 165.556192 
L 247.683297 165.556192 
L 247.321738 165.556192 
L 246.960179 165.556192 
L 246.59862 165.556192 
L 246.23706 165.556192 
L 245.875501 165.556192 
L 245.513942 165.556192 
L 245.152382 165.556192 
L 244.790823 165.556192 
L 244.429264 165.556192 
L 244.067705 165.556192 
L 243.706145 165.556192 
L 243.344586 165.556192 
L 242.983027 165.556192 
L 242.621467 165.556192 
L 242.259908 165.556192 
L 241.898349 165.556192 
L 241.53679 165.556192 
L 241.17523 165.556192 
L 240.813671 165.556192 
L 240.452112 165.556192 
L 240.090552 165.556192 
L 239.728993 165.556192 
L 239.367434 165.556192 
L 239.005875 165.556192 
L 238.644315 165.556192 
L 238.282756 165.556192 
L 237.921197 165.556192 
L 237.559637 165.556192 
L 237.198078 165.556192 
L 236.836519 165.556192 
L 236.47496 165.556192 
L 236.1134 165.556192 
L 235.751841 165.556192 
L 235.390282 165.556192 
L 235.028722 165.556192 
L 234.667163 165.556192 
L 234.305604 165.556192 
L 233.944045 165.556192 
L 233.582485 165.556192 
L 233.220926 165.556192 
L 232.859367 165.556192 
L 232.497807 165.556192 
L 232.136248 165.556192 
L 231.774689 165.556192 
L 231.41313 165.556192 
L 231.05157 165.556192 
L 230.690011 165.556192 
L 230.328452 165.556192 
L 229.966892 165.556192 
L 229.605333 165.556192 
L 229.243774 165.556192 
L 228.882215 165.556192 
L 228.520655 165.556192 
L 228.159096 165.556192 
L 227.797537 165.556192 
L 227.435977 165.556192 
L 227.074418 165.556192 
L 226.712859 165.556192 
L 226.3513 165.556192 
L 225.98974 165.556192 
L 225.628181 165.556192 
L 225.266622 165.556192 
L 224.905062 165.556192 
L 224.543503 165.556192 
L 224.181944 165.556192 
L 223.820385 165.556192 
L 223.458825 165.556192 
L 223.097266 165.556192 
L 222.735707 165.556192 
L 222.374147 165.556192 
L 222.012588 165.556192 
L 221.651029 165.556192 
L 221.28947 165.556192 
L 220.92791 165.556192 
L 220.566351 165.556192 
L 220.204792 165.556192 
L 219.843233 165.556192 
L 219.481673 165.556192 
L 219.120114 165.556192 
L 218.758555 165.556192 
L 218.396995 165.556192 
L 218.035436 165.556192 
L 217.673877 165.556192 
L 217.312318 165.556192 
L 216.950758 165.556192 
L 216.589199 165.556192 
L 216.22764 165.556192 
L 215.86608 165.556192 
L 215.504521 165.556192 
L 215.142962 165.556192 
L 214.781403 165.556192 
L 214.419843 165.556192 
L 214.058284 165.556192 
L 213.696725 165.556192 
L 213.335165 165.556192 
L 212.973606 165.556192 
L 212.612047 165.556192 
L 212.250488 165.556192 
L 211.888928 165.556192 
L 211.527369 165.556192 
L 211.16581 165.556192 
L 210.80425 165.556192 
L 210.442691 165.556192 
L 210.081132 165.556192 
L 209.719573 165.556192 
L 209.358013 165.556192 
L 208.996454 165.556192 
L 208.634895 165.556192 
L 208.273335 165.556192 
L 207.911776 165.556192 
L 207.550217 165.556192 
L 207.188658 165.556192 
L 206.827098 165.556192 
L 206.465539 165.556192 
L 206.10398 165.556192 
L 205.74242 165.556192 
L 205.380861 165.556192 
L 205.019302 165.556192 
L 204.657743 165.556192 
L 204.296183 165.556192 
L 203.934624 165.556192 
L 203.573065 165.556192 
L 203.211505 165.556192 
L 202.849946 165.556192 
L 202.488387 165.556192 
L 202.126828 165.556192 
L 201.765268 165.556192 
L 201.403709 165.556192 
L 201.04215 165.556192 
L 200.68059 165.556192 
L 200.319031 165.556192 
L 199.957472 165.556192 
L 199.595913 165.556192 
L 199.234353 165.556192 
L 198.872794 165.556192 
L 198.511235 165.556192 
L 198.149675 165.556192 
L 197.788116 165.556192 
L 197.426557 165.556192 
L 197.064998 165.556192 
L 196.703438 165.556192 
L 196.341879 165.556192 
L 195.98032 165.556192 
L 195.61876 165.556192 
L 195.257201 165.556192 
L 194.895642 165.556192 
L 194.534083 165.556192 
L 194.172523 165.556192 
L 193.810964 165.556192 
L 193.449405 165.556192 
L 193.087845 165.556192 
L 192.726286 165.556192 
L 192.364727 165.556192 
L 192.003168 165.556192 
L 191.641608 165.556192 
L 191.280049 165.556192 
L 190.91849 165.556192 
L 190.55693 165.556192 
L 190.195371 165.556192 
L 189.833812 165.556192 
L 189.472253 165.556192 
L 189.110693 165.556192 
L 188.749134 165.556192 
L 188.387575 165.556192 
L 188.026015 165.556192 
L 187.664456 165.556192 
L 187.302897 165.556192 
L 186.941338 165.556192 
L 186.579778 165.556192 
L 186.218219 165.556192 
L 185.85666 165.556192 
L 185.4951 165.556192 
L 185.133541 165.556192 
L 184.771982 165.556192 
L 184.410423 165.556192 
L 184.048863 165.556192 
L 183.687304 165.556192 
L 183.325745 165.556192 
L 182.964185 165.556192 
L 182.602626 165.556192 
L 182.241067 165.556192 
L 181.879508 165.556192 
L 181.517948 165.556192 
L 181.156389 165.556192 
L 180.79483 165.556192 
L 180.43327 165.556192 
L 180.071711 165.556192 
L 179.710152 165.556192 
L 179.348593 165.556192 
L 178.987033 165.556192 
L 178.625474 165.556192 
L 178.263915 165.556192 
L 177.902355 165.556192 
L 177.540796 165.556192 
L 177.179237 165.556192 
L 176.817678 165.556192 
L 176.456118 165.556192 
L 176.094559 165.556192 
L 175.733 165.556192 
L 175.37144 165.556192 
L 175.009881 165.556192 
L 174.648322 165.556192 
L 174.286763 165.556192 
L 173.925203 165.556192 
L 173.563644 165.556192 
L 173.202085 165.556192 
L 172.840525 165.556192 
L 172.478966 165.556192 
L 172.117407 165.556192 
L 171.755848 165.556192 
L 171.394288 165.556192 
L 171.032729 165.556192 
L 170.67117 165.556192 
L 170.30961 165.556192 
L 169.948051 165.556192 
L 169.586492 165.556192 
L 169.224933 165.556192 
L 168.863373 165.556192 
L 168.501814 165.556192 
L 168.140255 165.556192 
L 167.778695 165.556192 
L 167.417136 165.556192 
L 167.055577 165.556192 
L 166.694018 165.556192 
L 166.332458 165.556192 
L 165.970899 165.556192 
L 165.60934 165.556192 
L 165.24778 165.556192 
L 164.886221 165.556192 
L 164.524662 165.556192 
L 164.163103 165.556192 
L 163.801543 165.556192 
L 163.439984 165.556192 
L 163.078425 165.556192 
L 162.716865 165.556192 
L 162.355306 165.556192 
L 161.993747 165.556192 
L 161.632188 165.556192 
L 161.270628 165.556192 
L 160.909069 165.556192 
L 160.54751 165.556192 
L 160.18595 165.556192 
L 159.824391 165.556192 
L 159.462832 165.556192 
L 159.101273 165.556192 
L 158.739713 165.556192 
L 158.378154 165.556192 
L 158.016595 165.556192 
L 157.655035 165.556192 
L 157.293476 165.556192 
L 156.931917 165.556192 
L 156.570358 165.556192 
L 156.208798 165.556192 
L 155.847239 165.556192 
L 155.48568 165.556192 
L 155.12412 165.556192 
L 154.762561 165.556192 
L 154.401002 165.556192 
L 154.039443 165.556192 
L 153.677883 165.556192 
L 153.316324 165.556192 
L 152.954765 165.556192 
L 152.593205 165.556192 
L 152.231646 165.556192 
L 151.870087 165.556192 
L 151.508528 165.556192 
L 151.146968 165.556192 
L 150.785409 165.556192 
L 150.42385 165.556192 
L 150.06229 165.556192 
L 149.700731 165.556192 
L 149.339172 165.556192 
L 148.977613 165.556192 
L 148.616053 165.556192 
L 148.254494 165.556192 
L 147.892935 165.556192 
L 147.531375 165.556192 
L 147.169816 165.556192 
L 146.808257 165.556192 
L 146.446698 165.556192 
L 146.085138 165.556192 
L 145.723579 165.556192 
L 145.36202 165.556192 
L 145.00046 165.556192 
L 144.638901 165.556192 
L 144.277342 165.556192 
L 143.915783 165.556192 
L 143.554223 165.556192 
L 143.192664 165.556192 
L 142.831105 165.556192 
L 142.469545 165.556192 
L 142.107986 165.556192 
L 141.746427 165.556192 
L 141.384868 165.556192 
L 141.023308 165.556192 
L 140.661749 165.556192 
L 140.30019 165.556192 
L 139.93863 165.556192 
L 139.577071 165.556192 
L 139.215512 165.556192 
L 138.853953 165.556192 
L 138.492393 165.556192 
L 138.130834 165.556192 
L 137.769275 165.556192 
L 137.407715 165.556192 
L 137.046156 165.556192 
L 136.684597 165.556192 
L 136.323038 165.556192 
L 135.961478 165.556192 
L 135.599919 165.556192 
L 135.23836 165.556192 
L 134.8768 165.556192 
L 134.515241 165.556192 
L 134.153682 165.556192 
L 133.792123 165.556192 
L 133.430563 165.556192 
L 133.069004 165.556192 
L 132.707445 165.556192 
L 132.345885 165.556192 
L 131.984326 165.556192 
L 131.622767 165.556192 
L 131.261208 165.556192 
L 130.899648 165.556192 
L 130.538089 165.556192 
L 130.17653 165.556192 
L 129.81497 165.556192 
L 129.453411 165.556192 
L 129.091852 165.556192 
L 128.730293 165.556192 
L 128.368733 165.556192 
L 128.007174 165.556192 
L 127.645615 165.556192 
L 127.284055 165.556192 
L 126.922496 165.556192 
L 126.560937 165.556192 
L 126.199378 165.556192 
L 125.837818 165.556192 
L 125.476259 165.556192 
L 125.1147 165.556192 
L 124.75314 165.556192 
L 124.391581 165.556192 
L 124.030022 165.556192 
L 123.668463 165.556192 
L 123.306903 165.556192 
L 122.945344 165.556192 
L 122.583785 165.556192 
L 122.222225 165.556192 
L 121.860666 165.556192 
L 121.499107 165.556192 
L 121.137548 165.556192 
L 120.775988 165.556192 
L 120.414429 165.556192 
L 120.05287 165.556192 
L 119.69131 165.556192 
L 119.329751 165.556192 
L 118.968192 165.556192 
L 118.606633 165.556192 
L 118.245073 165.556192 
L 117.883514 165.556192 
L 117.521955 165.556192 
z
" clip-path="url(#p2c13b09322)" style="fill: #2ca02c; opacity: 0.3"/>
   </g>
   <g id="patch_7">
    <path d="M 117.521955 165.556192 
L 117.883514 165.337892 
L 118.245073 165.120052 
L 118.606633 164.902668 
L 118.968192 164.685737 
L 119.329751 164.469257 
L 119.69131 164.253224 
L 120.05287 164.037635 
L 120.414429 163.822488 
L 120.775988 163.607779 
L 121.137548 163.393506 
L 121.499107 163.179665 
L 121.860666 162.966255 
L 122.222225 162.753271 
L 122.583785 162.540712 
L 122.945344 162.328574 
L 123.306903 162.116855 
L 123.668463 161.905553 
L 124.030022 161.694663 
L 124.391581 161.484185 
L 124.75314 161.274115 
L 125.1147 161.064451 
L 125.476259 160.85519 
L 125.837818 160.64633 
L 126.199378 160.437868 
L 126.560937 160.229802 
L 126.922496 160.02213 
L 127.284055 159.814848 
L 127.645615 159.607954 
L 128.007174 159.401447 
L 128.368733 159.195324 
L 128.730293 158.989583 
L 129.091852 158.78422 
L 129.453411 158.579235 
L 129.81497 158.374625 
L 130.17653 158.170387 
L 130.538089 157.966519 
L 130.899648 157.76302 
L 131.261208 157.559886 
L 131.622767 157.357117 
L 131.984326 157.154709 
L 132.345885 156.952661 
L 132.707445 156.750971 
L 133.069004 156.549636 
L 133.430563 156.348655 
L 133.792123 156.148025 
L 134.153682 155.947745 
L 134.515241 155.747813 
L 134.8768 155.548226 
L 135.23836 155.348982 
L 135.599919 155.150081 
L 135.961478 154.95152 
L 136.323038 154.753296 
L 136.684597 154.555409 
L 137.046156 154.357856 
L 137.407715 154.160635 
L 137.769275 153.963745 
L 138.130834 153.767184 
L 138.492393 153.57095 
L 138.853953 153.375041 
L 139.215512 153.179456 
L 139.577071 152.984193 
L 139.93863 152.78925 
L 140.30019 152.594625 
L 140.661749 152.400317 
L 141.023308 152.206324 
L 141.384868 152.012645 
L 141.746427 151.819277 
L 142.107986 151.626219 
L 142.469545 151.43347 
L 142.831105 151.241028 
L 143.192664 151.048892 
L 143.554223 150.857059 
L 143.915783 150.665528 
L 144.277342 150.474298 
L 144.638901 150.283367 
L 145.00046 150.092734 
L 145.36202 149.902397 
L 145.723579 149.712355 
L 146.085138 149.522606 
L 146.446698 149.333148 
L 146.808257 149.143981 
L 147.169816 148.955103 
L 147.531375 148.766512 
L 147.892935 148.578207 
L 148.254494 148.390186 
L 148.616053 148.202449 
L 148.977613 148.014994 
L 149.339172 147.827819 
L 149.700731 147.640923 
L 150.06229 147.454305 
L 150.42385 147.267963 
L 150.785409 147.081896 
L 151.146968 146.896103 
L 151.508528 146.710583 
L 151.870087 146.525333 
L 152.231646 146.340354 
L 152.593205 146.155643 
L 152.954765 145.971199 
L 153.316324 145.787022 
L 153.677883 145.603109 
L 154.039443 145.41946 
L 154.401002 145.236073 
L 154.762561 145.052947 
L 155.12412 144.870082 
L 155.48568 144.687475 
L 155.847239 144.505126 
L 156.208798 144.323033 
L 156.570358 144.141195 
L 156.931917 143.959611 
L 157.293476 143.778281 
L 157.655035 143.597202 
L 158.016595 143.416373 
L 158.378154 143.235795 
L 158.739713 143.055464 
L 159.101273 142.875381 
L 159.462832 142.695544 
L 159.824391 142.515953 
L 160.18595 142.336605 
L 160.54751 142.1575 
L 160.909069 141.978637 
L 161.270628 141.800015 
L 161.632188 141.621633 
L 161.993747 141.443489 
L 162.355306 141.265583 
L 162.716865 141.087914 
L 163.078425 140.910481 
L 163.439984 140.733282 
L 163.801543 140.556317 
L 164.163103 140.379584 
L 164.524662 140.203083 
L 164.886221 140.026813 
L 165.24778 139.850772 
L 165.60934 139.67496 
L 165.970899 139.499376 
L 166.332458 139.324018 
L 166.694018 139.148887 
L 167.055577 138.97398 
L 167.417136 138.799298 
L 167.778695 138.624838 
L 168.140255 138.4506 
L 168.501814 138.276584 
L 168.863373 138.102788 
L 169.224933 137.929211 
L 169.586492 137.755853 
L 169.948051 137.582712 
L 170.30961 137.409789 
L 170.67117 137.23708 
L 171.032729 137.064587 
L 171.394288 136.892308 
L 171.755848 136.720243 
L 172.117407 136.548389 
L 172.478966 136.376747 
L 172.840525 136.205316 
L 173.202085 136.034095 
L 173.563644 135.863082 
L 173.925203 135.692278 
L 174.286763 135.521681 
L 174.648322 135.351291 
L 175.009881 135.181107 
L 175.37144 135.011127 
L 175.733 134.841351 
L 176.094559 134.671779 
L 176.456118 134.50241 
L 176.817678 134.333242 
L 177.179237 134.164275 
L 177.540796 133.995508 
L 177.902355 133.826941 
L 178.263915 133.658573 
L 178.625474 133.490402 
L 178.987033 133.322429 
L 179.348593 133.154651 
L 179.710152 132.98707 
L 180.071711 132.819684 
L 180.43327 132.652491 
L 180.79483 132.485493 
L 181.156389 132.318687 
L 181.517948 132.152073 
L 181.879508 131.98565 
L 182.241067 131.819418 
L 182.602626 131.653375 
L 182.964185 131.487522 
L 183.325745 131.321858 
L 183.687304 131.156381 
L 184.048863 130.991091 
L 184.410423 130.825988 
L 184.771982 130.66107 
L 185.133541 130.496338 
L 185.4951 130.33179 
L 185.85666 130.167425 
L 186.218219 130.003244 
L 186.579778 129.839245 
L 186.941338 129.675427 
L 187.302897 129.511791 
L 187.664456 129.348335 
L 188.026015 129.185059 
L 188.387575 129.021962 
L 188.749134 128.859044 
L 189.110693 128.696303 
L 189.472253 128.53374 
L 189.833812 128.371353 
L 190.195371 128.209143 
L 190.55693 128.047107 
L 190.91849 127.885247 
L 191.280049 127.72356 
L 191.641608 127.562048 
L 192.003168 127.400708 
L 192.364727 127.23954 
L 192.726286 127.078544 
L 193.087845 126.917719 
L 193.449405 126.757065 
L 193.810964 126.596581 
L 194.172523 126.436266 
L 194.534083 126.27612 
L 194.895642 126.116142 
L 195.257201 125.956332 
L 195.61876 125.796689 
L 195.98032 125.637213 
L 196.341879 125.477902 
L 196.703438 125.318757 
L 197.064998 125.159777 
L 197.426557 125.000961 
L 197.788116 124.842308 
L 198.149675 124.683819 
L 198.511235 124.525493 
L 198.872794 124.367328 
L 199.234353 124.209325 
L 199.595913 124.051484 
L 199.957472 123.893802 
L 200.319031 123.736281 
L 200.68059 123.578919 
L 201.04215 123.421716 
L 201.403709 123.264672 
L 201.765268 123.107785 
L 202.126828 122.951056 
L 202.488387 122.794483 
L 202.849946 122.638067 
L 203.211505 122.481807 
L 203.573065 122.325702 
L 203.934624 122.169752 
L 204.296183 122.013956 
L 204.657743 121.858314 
L 205.019302 121.702825 
L 205.380861 121.54749 
L 205.74242 121.392306 
L 206.10398 121.237275 
L 206.465539 121.082395 
L 206.827098 120.927666 
L 207.188658 120.773087 
L 207.550217 120.618658 
L 207.911776 120.464379 
L 208.273335 120.310249 
L 208.634895 120.156267 
L 208.996454 120.002434 
L 209.358013 119.848748 
L 209.719573 119.695209 
L 210.081132 119.541817 
L 210.442691 119.388572 
L 210.80425 119.235472 
L 211.16581 119.082517 
L 211.527369 118.929708 
L 211.888928 118.777042 
L 212.250488 118.624521 
L 212.612047 118.472144 
L 212.973606 118.319909 
L 213.335165 118.167818 
L 213.696725 118.015868 
L 214.058284 117.864061 
L 214.419843 117.712395 
L 214.781403 117.56087 
L 215.142962 117.409485 
L 215.504521 117.258241 
L 215.86608 117.107136 
L 216.22764 116.956171 
L 216.589199 116.805344 
L 216.950758 116.654656 
L 217.312318 116.504106 
L 217.673877 116.353694 
L 218.035436 116.203419 
L 218.396995 116.053281 
L 218.758555 115.903279 
L 219.120114 115.753413 
L 219.481673 115.603683 
L 219.843233 115.454088 
L 220.204792 115.304628 
L 220.566351 115.155302 
L 220.92791 115.006111 
L 221.28947 114.857053 
L 221.651029 114.708128 
L 222.012588 114.559337 
L 222.374147 114.410677 
L 222.735707 114.26215 
L 223.097266 114.113755 
L 223.458825 113.965491 
L 223.820385 113.817358 
L 224.181944 113.669355 
L 224.543503 113.521483 
L 224.905062 113.373741 
L 225.266622 113.226128 
L 225.628181 113.078644 
L 225.98974 112.931289 
L 226.3513 112.784063 
L 226.712859 112.636964 
L 227.074418 112.489993 
L 227.435977 112.343149 
L 227.797537 112.196433 
L 228.159096 112.049843 
L 228.520655 111.903379 
L 228.882215 111.757041 
L 229.243774 111.610829 
L 229.605333 111.464741 
L 229.966892 111.318779 
L 230.328452 111.172941 
L 230.690011 111.027227 
L 231.05157 110.881638 
L 231.41313 110.736171 
L 231.774689 110.590828 
L 232.136248 110.445607 
L 232.497807 110.300509 
L 232.859367 110.155533 
L 233.220926 110.010679 
L 233.582485 109.865946 
L 233.944045 109.721335 
L 234.305604 109.576844 
L 234.667163 109.432473 
L 235.028722 109.288223 
L 235.390282 109.144093 
L 235.751841 109.000082 
L 236.1134 108.85619 
L 236.47496 108.712417 
L 236.836519 108.568763 
L 237.198078 108.425227 
L 237.559637 108.281808 
L 237.921197 108.138508 
L 238.282756 107.995324 
L 238.644315 107.852258 
L 239.005875 107.709308 
L 239.367434 107.566474 
L 239.728993 107.423757 
L 240.090552 107.281155 
L 240.452112 107.138669 
L 240.813671 106.996298 
L 241.17523 106.854042 
L 241.53679 106.7119 
L 241.898349 106.569872 
L 242.259908 106.427959 
L 242.621467 106.286159 
L 242.983027 106.144472 
L 243.344586 106.002898 
L 243.706145 105.861437 
L 244.067705 105.720089 
L 244.429264 105.578852 
L 244.790823 105.437728 
L 245.152382 105.296715 
L 245.513942 105.155814 
L 245.875501 105.015023 
L 246.23706 104.874343 
L 246.59862 104.733774 
L 246.960179 104.593315 
L 247.321738 104.452965 
L 247.683297 104.312726 
L 248.044857 104.172595 
L 248.406416 104.032574 
L 248.767975 103.892661 
L 249.129535 103.752857 
L 249.491094 103.613162 
L 249.852653 103.473574 
L 250.214212 103.334094 
L 250.575772 103.194721 
L 250.937331 103.055455 
L 251.29889 102.916297 
L 251.66045 102.777245 
L 252.022009 102.638299 
L 252.383568 102.499459 
L 252.745127 102.360726 
L 253.106687 102.222097 
L 253.468246 102.083574 
L 253.829805 101.945156 
L 254.191365 101.806843 
L 254.552924 101.668635 
L 254.914483 101.530531 
L 255.276042 101.39253 
L 255.637602 101.254634 
L 255.999161 101.116841 
L 256.36072 100.979151 
L 256.72228 100.841564 
L 257.083839 100.70408 
L 257.445398 100.566699 
L 257.806957 100.42942 
L 258.168517 100.292242 
L 258.530076 100.155167 
L 258.891635 100.018193 
L 259.253195 99.88132 
L 259.614754 99.744549 
L 259.976313 99.607878 
L 260.337872 99.471308 
L 260.699432 99.334838 
L 261.060991 99.198468 
L 261.42255 99.062198 
L 261.78411 98.926027 
L 261.78411 165.556192 
L 261.78411 165.556192 
L 261.42255 165.556192 
L 261.060991 165.556192 
L 260.699432 165.556192 
L 260.337872 165.556192 
L 259.976313 165.556192 
L 259.614754 165.556192 
L 259.253195 165.556192 
L 258.891635 165.556192 
L 258.530076 165.556192 
L 258.168517 165.556192 
L 257.806957 165.556192 
L 257.445398 165.556192 
L 257.083839 165.556192 
L 256.72228 165.556192 
L 256.36072 165.556192 
L 255.999161 165.556192 
L 255.637602 165.556192 
L 255.276042 165.556192 
L 254.914483 165.556192 
L 254.552924 165.556192 
L 254.191365 165.556192 
L 253.829805 165.556192 
L 253.468246 165.556192 
L 253.106687 165.556192 
L 252.745127 165.556192 
L 252.383568 165.556192 
L 252.022009 165.556192 
L 251.66045 165.556192 
L 251.29889 165.556192 
L 250.937331 165.556192 
L 250.575772 165.556192 
L 250.214212 165.556192 
L 249.852653 165.556192 
L 249.491094 165.556192 
L 249.129535 165.556192 
L 248.767975 165.556192 
L 248.406416 165.556192 
L 248.044857 165.556192 
L 247.683297 165.556192 
L 247.321738 165.556192 
L 246.960179 165.556192 
L 246.59862 165.556192 
L 246.23706 165.556192 
L 245.875501 165.556192 
L 245.513942 165.556192 
L 245.152382 165.556192 
L 244.790823 165.556192 
L 244.429264 165.556192 
L 244.067705 165.556192 
L 243.706145 165.556192 
L 243.344586 165.556192 
L 242.983027 165.556192 
L 242.621467 165.556192 
L 242.259908 165.556192 
L 241.898349 165.556192 
L 241.53679 165.556192 
L 241.17523 165.556192 
L 240.813671 165.556192 
L 240.452112 165.556192 
L 240.090552 165.556192 
L 239.728993 165.556192 
L 239.367434 165.556192 
L 239.005875 165.556192 
L 238.644315 165.556192 
L 238.282756 165.556192 
L 237.921197 165.556192 
L 237.559637 165.556192 
L 237.198078 165.556192 
L 236.836519 165.556192 
L 236.47496 165.556192 
L 236.1134 165.556192 
L 235.751841 165.556192 
L 235.390282 165.556192 
L 235.028722 165.556192 
L 234.667163 165.556192 
L 234.305604 165.556192 
L 233.944045 165.556192 
L 233.582485 165.556192 
L 233.220926 165.556192 
L 232.859367 165.556192 
L 232.497807 165.556192 
L 232.136248 165.556192 
L 231.774689 165.556192 
L 231.41313 165.556192 
L 231.05157 165.556192 
L 230.690011 165.556192 
L 230.328452 165.556192 
L 229.966892 165.556192 
L 229.605333 165.556192 
L 229.243774 165.556192 
L 228.882215 165.556192 
L 228.520655 165.556192 
L 228.159096 165.556192 
L 227.797537 165.556192 
L 227.435977 165.556192 
L 227.074418 165.556192 
L 226.712859 165.556192 
L 226.3513 165.556192 
L 225.98974 165.556192 
L 225.628181 165.556192 
L 225.266622 165.556192 
L 224.905062 165.556192 
L 224.543503 165.556192 
L 224.181944 165.556192 
L 223.820385 165.556192 
L 223.458825 165.556192 
L 223.097266 165.556192 
L 222.735707 165.556192 
L 222.374147 165.556192 
L 222.012588 165.556192 
L 221.651029 165.556192 
L 221.28947 165.556192 
L 220.92791 165.556192 
L 220.566351 165.556192 
L 220.204792 165.556192 
L 219.843233 165.556192 
L 219.481673 165.556192 
L 219.120114 165.556192 
L 218.758555 165.556192 
L 218.396995 165.556192 
L 218.035436 165.556192 
L 217.673877 165.556192 
L 217.312318 165.556192 
L 216.950758 165.556192 
L 216.589199 165.556192 
L 216.22764 165.556192 
L 215.86608 165.556192 
L 215.504521 165.556192 
L 215.142962 165.556192 
L 214.781403 165.556192 
L 214.419843 165.556192 
L 214.058284 165.556192 
L 213.696725 165.556192 
L 213.335165 165.556192 
L 212.973606 165.556192 
L 212.612047 165.556192 
L 212.250488 165.556192 
L 211.888928 165.556192 
L 211.527369 165.556192 
L 211.16581 165.556192 
L 210.80425 165.556192 
L 210.442691 165.556192 
L 210.081132 165.556192 
L 209.719573 165.556192 
L 209.358013 165.556192 
L 208.996454 165.556192 
L 208.634895 165.556192 
L 208.273335 165.556192 
L 207.911776 165.556192 
L 207.550217 165.556192 
L 207.188658 165.556192 
L 206.827098 165.556192 
L 206.465539 165.556192 
L 206.10398 165.556192 
L 205.74242 165.556192 
L 205.380861 165.556192 
L 205.019302 165.556192 
L 204.657743 165.556192 
L 204.296183 165.556192 
L 203.934624 165.556192 
L 203.573065 165.556192 
L 203.211505 165.556192 
L 202.849946 165.556192 
L 202.488387 165.556192 
L 202.126828 165.556192 
L 201.765268 165.556192 
L 201.403709 165.556192 
L 201.04215 165.556192 
L 200.68059 165.556192 
L 200.319031 165.556192 
L 199.957472 165.556192 
L 199.595913 165.556192 
L 199.234353 165.556192 
L 198.872794 165.556192 
L 198.511235 165.556192 
L 198.149675 165.556192 
L 197.788116 165.556192 
L 197.426557 165.556192 
L 197.064998 165.556192 
L 196.703438 165.556192 
L 196.341879 165.556192 
L 195.98032 165.556192 
L 195.61876 165.556192 
L 195.257201 165.556192 
L 194.895642 165.556192 
L 194.534083 165.556192 
L 194.172523 165.556192 
L 193.810964 165.556192 
L 193.449405 165.556192 
L 193.087845 165.556192 
L 192.726286 165.556192 
L 192.364727 165.556192 
L 192.003168 165.556192 
L 191.641608 165.556192 
L 191.280049 165.556192 
L 190.91849 165.556192 
L 190.55693 165.556192 
L 190.195371 165.556192 
L 189.833812 165.556192 
L 189.472253 165.556192 
L 189.110693 165.556192 
L 188.749134 165.556192 
L 188.387575 165.556192 
L 188.026015 165.556192 
L 187.664456 165.556192 
L 187.302897 165.556192 
L 186.941338 165.556192 
L 186.579778 165.556192 
L 186.218219 165.556192 
L 185.85666 165.556192 
L 185.4951 165.556192 
L 185.133541 165.556192 
L 184.771982 165.556192 
L 184.410423 165.556192 
L 184.048863 165.556192 
L 183.687304 165.556192 
L 183.325745 165.556192 
L 182.964185 165.556192 
L 182.602626 165.556192 
L 182.241067 165.556192 
L 181.879508 165.556192 
L 181.517948 165.556192 
L 181.156389 165.556192 
L 180.79483 165.556192 
L 180.43327 165.556192 
L 180.071711 165.556192 
L 179.710152 165.556192 
L 179.348593 165.556192 
L 178.987033 165.556192 
L 178.625474 165.556192 
L 178.263915 165.556192 
L 177.902355 165.556192 
L 177.540796 165.556192 
L 177.179237 165.556192 
L 176.817678 165.556192 
L 176.456118 165.556192 
L 176.094559 165.556192 
L 175.733 165.556192 
L 175.37144 165.556192 
L 175.009881 165.556192 
L 174.648322 165.556192 
L 174.286763 165.556192 
L 173.925203 165.556192 
L 173.563644 165.556192 
L 173.202085 165.556192 
L 172.840525 165.556192 
L 172.478966 165.556192 
L 172.117407 165.556192 
L 171.755848 165.556192 
L 171.394288 165.556192 
L 171.032729 165.556192 
L 170.67117 165.556192 
L 170.30961 165.556192 
L 169.948051 165.556192 
L 169.586492 165.556192 
L 169.224933 165.556192 
L 168.863373 165.556192 
L 168.501814 165.556192 
L 168.140255 165.556192 
L 167.778695 165.556192 
L 167.417136 165.556192 
L 167.055577 165.556192 
L 166.694018 165.556192 
L 166.332458 165.556192 
L 165.970899 165.556192 
L 165.60934 165.556192 
L 165.24778 165.556192 
L 164.886221 165.556192 
L 164.524662 165.556192 
L 164.163103 165.556192 
L 163.801543 165.556192 
L 163.439984 165.556192 
L 163.078425 165.556192 
L 162.716865 165.556192 
L 162.355306 165.556192 
L 161.993747 165.556192 
L 161.632188 165.556192 
L 161.270628 165.556192 
L 160.909069 165.556192 
L 160.54751 165.556192 
L 160.18595 165.556192 
L 159.824391 165.556192 
L 159.462832 165.556192 
L 159.101273 165.556192 
L 158.739713 165.556192 
L 158.378154 165.556192 
L 158.016595 165.556192 
L 157.655035 165.556192 
L 157.293476 165.556192 
L 156.931917 165.556192 
L 156.570358 165.556192 
L 156.208798 165.556192 
L 155.847239 165.556192 
L 155.48568 165.556192 
L 155.12412 165.556192 
L 154.762561 165.556192 
L 154.401002 165.556192 
L 154.039443 165.556192 
L 153.677883 165.556192 
L 153.316324 165.556192 
L 152.954765 165.556192 
L 152.593205 165.556192 
L 152.231646 165.556192 
L 151.870087 165.556192 
L 151.508528 165.556192 
L 151.146968 165.556192 
L 150.785409 165.556192 
L 150.42385 165.556192 
L 150.06229 165.556192 
L 149.700731 165.556192 
L 149.339172 165.556192 
L 148.977613 165.556192 
L 148.616053 165.556192 
L 148.254494 165.556192 
L 147.892935 165.556192 
L 147.531375 165.556192 
L 147.169816 165.556192 
L 146.808257 165.556192 
L 146.446698 165.556192 
L 146.085138 165.556192 
L 145.723579 165.556192 
L 145.36202 165.556192 
L 145.00046 165.556192 
L 144.638901 165.556192 
L 144.277342 165.556192 
L 143.915783 165.556192 
L 143.554223 165.556192 
L 143.192664 165.556192 
L 142.831105 165.556192 
L 142.469545 165.556192 
L 142.107986 165.556192 
L 141.746427 165.556192 
L 141.384868 165.556192 
L 141.023308 165.556192 
L 140.661749 165.556192 
L 140.30019 165.556192 
L 139.93863 165.556192 
L 139.577071 165.556192 
L 139.215512 165.556192 
L 138.853953 165.556192 
L 138.492393 165.556192 
L 138.130834 165.556192 
L 137.769275 165.556192 
L 137.407715 165.556192 
L 137.046156 165.556192 
L 136.684597 165.556192 
L 136.323038 165.556192 
L 135.961478 165.556192 
L 135.599919 165.556192 
L 135.23836 165.556192 
L 134.8768 165.556192 
L 134.515241 165.556192 
L 134.153682 165.556192 
L 133.792123 165.556192 
L 133.430563 165.556192 
L 133.069004 165.556192 
L 132.707445 165.556192 
L 132.345885 165.556192 
L 131.984326 165.556192 
L 131.622767 165.556192 
L 131.261208 165.556192 
L 130.899648 165.556192 
L 130.538089 165.556192 
L 130.17653 165.556192 
L 129.81497 165.556192 
L 129.453411 165.556192 
L 129.091852 165.556192 
L 128.730293 165.556192 
L 128.368733 165.556192 
L 128.007174 165.556192 
L 127.645615 165.556192 
L 127.284055 165.556192 
L 126.922496 165.556192 
L 126.560937 165.556192 
L 126.199378 165.556192 
L 125.837818 165.556192 
L 125.476259 165.556192 
L 125.1147 165.556192 
L 124.75314 165.556192 
L 124.391581 165.556192 
L 124.030022 165.556192 
L 123.668463 165.556192 
L 123.306903 165.556192 
L 122.945344 165.556192 
L 122.583785 165.556192 
L 122.222225 165.556192 
L 121.860666 165.556192 
L 121.499107 165.556192 
L 121.137548 165.556192 
L 120.775988 165.556192 
L 120.414429 165.556192 
L 120.05287 165.556192 
L 119.69131 165.556192 
L 119.329751 165.556192 
L 118.968192 165.556192 
L 118.606633 165.556192 
L 118.245073 165.556192 
L 117.883514 165.556192 
L 117.521955 165.556192 
z
" clip-path="url(#p2c13b09322)" style="fill: url(#h4928342c72); opacity: 0.7; stroke: #1a6e1a; stroke-width: 0.6; stroke-linejoin: miter"/>
   </g>
   <g id="patch_8">
    <path d="M 41.641644 248.109617 
L 261.78411 248.109617 
L 261.78411 165.556192 
L 41.641644 165.556192 
L 41.641644 248.109617 
z
" clip-path="url(#p2c13b09322)" style="fill: none; stroke-dasharray: 4.07,1.76; stroke-dashoffset: 0; stroke: #333333; stroke-width: 1.1; stroke-linejoin: miter"/>
   </g>
   <g id="text_1">
    <!-- $a$ -->
    <g transform="translate(258.07411 271.589073) scale(0.14 -0.14)">
     <defs>
      <path id="Cmmi10-61" d="M 1113 -72 
Q 709 -72 476 233 
Q 244 538 244 953 
Q 244 1363 456 1803 
Q 669 2244 1030 2536 
Q 1391 2828 1806 2828 
Q 1997 2828 2147 2725 
Q 2297 2622 2381 2444 
Q 2453 2700 2663 2700 
Q 2744 2700 2798 2651 
Q 2853 2603 2853 2522 
Q 2853 2503 2851 2493 
Q 2850 2484 2847 2472 
L 2400 684 
Q 2356 494 2356 372 
Q 2356 97 2541 97 
Q 2741 97 2845 351 
Q 2950 606 3022 941 
Q 3034 978 3072 978 
L 3150 978 
Q 3175 978 3190 956 
Q 3206 934 3206 916 
Q 3094 469 2961 198 
Q 2828 -72 2528 -72 
Q 2313 -72 2147 54 
Q 1981 181 1941 391 
Q 1528 -72 1113 -72 
z
M 1119 97 
Q 1350 97 1567 270 
Q 1784 444 1941 678 
Q 1947 684 1947 697 
L 2291 2088 
L 2297 2106 
Q 2259 2334 2132 2498 
Q 2006 2663 1791 2663 
Q 1575 2663 1389 2486 
Q 1203 2309 1075 2069 
Q 950 1813 836 1366 
Q 722 919 722 672 
Q 722 450 817 273 
Q 913 97 1119 97 
z
" transform="scale(0.015625)"/>
     </defs>
     <use xlink:href="#Cmmi10-61" transform="translate(0 0.8125)"/>
    </g>
   </g>
   <g id="text_2">
    <!-- $b$ -->
    <g transform="translate(22.78 169.419317) scale(0.14 -0.14)">
     <defs>
      <path id="Cmmi10-62" d="M 1106 -72 
Q 719 -72 503 231 
Q 288 534 288 941 
Q 288 1000 317 1173 
Q 347 1347 347 1388 
L 966 3872 
Q 991 3981 997 4044 
Q 997 4147 581 4147 
Q 519 4147 519 4231 
Q 522 4247 533 4287 
Q 544 4328 561 4350 
Q 578 4372 609 4372 
L 1472 4441 
Q 1550 4441 1550 4359 
L 1075 2472 
Q 1438 2828 1806 2828 
Q 2078 2828 2273 2684 
Q 2469 2541 2566 2306 
Q 2663 2072 2663 1806 
Q 2663 1497 2542 1167 
Q 2422 838 2209 555 
Q 1997 272 1712 100 
Q 1428 -72 1106 -72 
z
M 1119 97 
Q 1338 97 1528 280 
Q 1719 463 1838 691 
Q 1966 947 2077 1386 
Q 2188 1825 2188 2088 
Q 2188 2316 2092 2489 
Q 1997 2663 1791 2663 
Q 1559 2663 1348 2492 
Q 1138 2322 978 2088 
L 800 1363 
Q 697 959 691 716 
Q 691 475 795 286 
Q 900 97 1119 97 
z
" transform="scale(0.015625)"/>
     </defs>
     <use xlink:href="#Cmmi10-62" transform="translate(0 0.609375)"/>
    </g>
   </g>
   <g id="text_3">
    <!-- $f(a)$ -->
    <g transform="translate(7.2 101.926027) scale(0.12 -0.12)">
     <defs>
      <path id="Cmmi10-66" d="M 622 -1056 
Q 741 -1147 909 -1147 
Q 1138 -1147 1281 -641 
Q 1341 -397 1606 966 
L 1900 2534 
L 1350 2534 
Q 1288 2534 1288 2619 
Q 1313 2759 1369 2759 
L 1941 2759 
L 2016 3175 
Q 2053 3369 2084 3508 
Q 2116 3647 2152 3765 
Q 2188 3884 2259 4031 
Q 2369 4241 2555 4377 
Q 2741 4513 2956 4513 
Q 3097 4513 3230 4461 
Q 3363 4409 3447 4306 
Q 3531 4203 3531 4063 
Q 3531 3900 3423 3779 
Q 3316 3659 3163 3659 
Q 3059 3659 2986 3723 
Q 2913 3788 2913 3891 
Q 2913 4031 3008 4136 
Q 3103 4241 3244 4256 
Q 3125 4347 2950 4347 
Q 2853 4347 2767 4256 
Q 2681 4166 2656 4063 
Q 2616 3900 2478 3181 
L 2400 2759 
L 3059 2759 
Q 3122 2759 3122 2675 
Q 3119 2659 3109 2620 
Q 3100 2581 3083 2557 
Q 3066 2534 3041 2534 
L 2356 2534 
L 2059 972 
Q 2003 631 1929 279 
Q 1856 -72 1723 -442 
Q 1591 -813 1384 -1063 
Q 1178 -1313 897 -1313 
Q 681 -1313 511 -1189 
Q 341 -1066 341 -863 
Q 341 -700 445 -579 
Q 550 -459 709 -459 
Q 816 -459 887 -523 
Q 959 -588 959 -691 
Q 959 -828 857 -942 
Q 756 -1056 622 -1056 
z
" transform="scale(0.015625)"/>
      <path id="Cmr10-28" d="M 1984 -1588 
Q 1628 -1306 1370 -942 
Q 1113 -578 948 -165 
Q 784 247 703 697 
Q 622 1147 622 1600 
Q 622 2059 703 2509 
Q 784 2959 951 3375 
Q 1119 3791 1378 4153 
Q 1638 4516 1984 4788 
Q 1984 4800 2016 4800 
L 2075 4800 
Q 2094 4800 2109 4783 
Q 2125 4766 2125 4744 
Q 2125 4716 2113 4703 
Q 1800 4397 1592 4047 
Q 1384 3697 1257 3301 
Q 1131 2906 1075 2482 
Q 1019 2059 1019 1600 
Q 1019 -434 2106 -1491 
Q 2125 -1509 2125 -1544 
Q 2125 -1559 2108 -1579 
Q 2091 -1600 2075 -1600 
L 2016 -1600 
Q 1984 -1600 1984 -1588 
z
" transform="scale(0.015625)"/>
      <path id="Cmr10-29" d="M 416 -1600 
Q 359 -1600 359 -1544 
Q 359 -1516 372 -1503 
Q 1466 -434 1466 1600 
Q 1466 3634 384 4691 
Q 359 4706 359 4744 
Q 359 4766 376 4783 
Q 394 4800 416 4800 
L 475 4800 
Q 494 4800 506 4788 
Q 966 4425 1272 3906 
Q 1578 3388 1720 2800 
Q 1863 2213 1863 1600 
Q 1863 1147 1786 708 
Q 1709 269 1542 -157 
Q 1375 -584 1119 -945 
Q 863 -1306 506 -1588 
Q 494 -1600 475 -1600 
L 416 -1600 
z
" transform="scale(0.015625)"/>
     </defs>
     <use xlink:href="#Cmmi10-66"/>
     <use xlink:href="#Cmr10-28" transform="translate(48.876953 0)"/>
     <use xlink:href="#Cmmi10-61" transform="translate(87.695312 0)"/>
     <use xlink:href="#Cmr10-29" transform="translate(140.478516 0)"/>
    </g>
   </g>
   <g id="text_4">
    <!-- $0$ -->
    <g transform="translate(23.3 269.309542) scale(0.11 -0.11)">
     <defs>
      <path id="Cmr10-30" d="M 1600 -141 
Q 816 -141 533 504 
Q 250 1150 250 2041 
Q 250 2597 351 3087 
Q 453 3578 754 3920 
Q 1056 4263 1600 4263 
Q 2022 4263 2290 4056 
Q 2559 3850 2700 3523 
Q 2841 3197 2892 2823 
Q 2944 2450 2944 2041 
Q 2944 1491 2842 1011 
Q 2741 531 2444 195 
Q 2147 -141 1600 -141 
z
M 1600 25 
Q 1956 25 2131 390 
Q 2306 756 2347 1200 
Q 2388 1644 2388 2144 
Q 2388 2625 2347 3031 
Q 2306 3438 2132 3767 
Q 1959 4097 1600 4097 
Q 1238 4097 1063 3765 
Q 888 3434 847 3029 
Q 806 2625 806 2144 
Q 806 1788 823 1472 
Q 841 1156 916 820 
Q 991 484 1158 254 
Q 1325 25 1600 25 
z
" transform="scale(0.015625)"/>
     </defs>
     <use xlink:href="#Cmr10-30" transform="translate(0 0.390625)"/>
    </g>
   </g>
   <g id="text_5">
    <!-- $t$ -->
    <g transform="translate(344.337534 264.250991) scale(0.14 -0.14)">
     <defs>
      <path id="Cmmi10-74" d="M 397 519 
Q 397 613 416 697 
L 878 2534 
L 206 2534 
Q 141 2534 141 2619 
Q 166 2759 225 2759 
L 934 2759 
L 1191 3803 
Q 1216 3888 1291 3947 
Q 1366 4006 1459 4006 
Q 1541 4006 1595 3957 
Q 1650 3909 1650 3828 
Q 1650 3809 1648 3798 
Q 1647 3788 1644 3775 
L 1388 2759 
L 2047 2759 
Q 2113 2759 2113 2675 
Q 2109 2659 2100 2621 
Q 2091 2584 2075 2559 
Q 2059 2534 2028 2534 
L 1331 2534 
L 872 684 
Q 825 503 825 372 
Q 825 97 1013 97 
Q 1294 97 1511 361 
Q 1728 625 1844 941 
Q 1869 978 1894 978 
L 1972 978 
Q 1997 978 2012 961 
Q 2028 944 2028 922 
Q 2028 909 2022 903 
Q 1881 516 1612 222 
Q 1344 -72 997 -72 
Q 744 -72 570 93 
Q 397 259 397 519 
z
" transform="scale(0.015625)"/>
     </defs>
     <use xlink:href="#Cmmi10-74" transform="translate(0 0.40625)"/>
    </g>
   </g>
   <g id="text_6">
    <!-- $s$ -->
    <g transform="translate(47.145205 22.633643) scale(0.14 -0.14)">
     <defs>
      <path id="Cmmi10-73" d="M 556 391 
Q 728 97 1247 97 
Q 1472 97 1675 173 
Q 1878 250 2011 403 
Q 2144 556 2144 775 
Q 2144 941 2025 1047 
Q 1906 1153 1734 1191 
L 1388 1259 
Q 1150 1319 997 1481 
Q 844 1644 844 1875 
Q 844 2159 998 2378 
Q 1153 2597 1406 2712 
Q 1659 2828 1931 2828 
Q 2222 2828 2451 2689 
Q 2681 2550 2681 2278 
Q 2681 2131 2598 2018 
Q 2516 1906 2369 1906 
Q 2284 1906 2223 1961 
Q 2163 2016 2163 2100 
Q 2163 2175 2205 2245 
Q 2247 2316 2317 2358 
Q 2388 2400 2463 2400 
Q 2406 2538 2251 2600 
Q 2097 2663 1919 2663 
Q 1756 2663 1593 2597 
Q 1431 2531 1332 2404 
Q 1234 2278 1234 2106 
Q 1234 1991 1315 1903 
Q 1397 1816 1516 1778 
L 1888 1703 
Q 2066 1666 2214 1570 
Q 2363 1475 2448 1329 
Q 2534 1184 2534 997 
Q 2534 759 2401 528 
Q 2269 297 2075 159 
Q 1734 -72 1241 -72 
Q 900 -72 615 84 
Q 331 241 331 550 
Q 331 725 432 854 
Q 534 984 709 984 
Q 813 984 883 921 
Q 953 859 953 756 
Q 953 609 843 500 
Q 734 391 588 391 
L 556 391 
z
" transform="scale(0.015625)"/>
     </defs>
     <use xlink:href="#Cmmi10-73" transform="translate(0 0.8125)"/>
    </g>
   </g>
   <g id="text_7">
    <!-- $ab \;\leq\; \int_0^{a} f(t)\,\mathrm{d}t \;+\; \int_0^{b} f^{-1}(s)\,\mathrm{d}s$ -->
    <g transform="translate(103.910137 289.529343) scale(0.12 -0.12)">
     <defs>
      <path id="Cmsy10-2219" d="M 653 -878 
Q 600 -878 565 -837 
Q 531 -797 531 -750 
Q 531 -697 565 -659 
Q 600 -622 653 -622 
L 4325 -622 
Q 4375 -622 4408 -659 
Q 4441 -697 4441 -750 
Q 4441 -797 4408 -837 
Q 4375 -878 4325 -878 
L 653 -878 
z
M 594 2113 
Q 531 2131 531 2222 
Q 531 2303 616 2338 
L 4269 4063 
Q 4281 4072 4313 4072 
Q 4366 4072 4403 4034 
Q 4441 3997 4441 3944 
Q 4441 3859 4366 3828 
L 959 2222 
L 4384 603 
Q 4441 572 4441 494 
Q 4441 438 4403 402 
Q 4366 366 4313 366 
Q 4281 366 4269 378 
L 594 2113 
z
" transform="scale(0.015625)"/>
      <path id="Cmex10-5a" d="M 678 -13894 
Q 838 -14053 1069 -14053 
Q 1300 -14053 1490 -13736 
Q 1681 -13419 1825 -12944 
Q 1969 -12469 2036 -12148 
Q 2103 -11828 2203 -11322 
Q 2294 -10850 2378 -10375 
Q 2463 -9900 2552 -9364 
Q 2641 -8828 2739 -8276 
Q 2838 -7725 2963 -7103 
Q 3131 -6284 3204 -5932 
Q 3278 -5581 3428 -4917 
Q 3578 -4253 3626 -4042 
Q 3675 -3831 3903 -2888 
L 3988 -2553 
Q 4131 -1991 4209 -1702 
Q 4288 -1413 4452 -995 
Q 4616 -578 4837 -289 
Q 5059 0 5325 0 
Q 5513 0 5673 -84 
Q 5834 -169 5934 -316 
Q 6034 -463 6034 -653 
Q 6034 -791 5943 -881 
Q 5853 -972 5716 -972 
Q 5575 -972 5481 -881 
Q 5388 -791 5388 -653 
Q 5388 -513 5481 -419 
Q 5575 -325 5716 -325 
Q 5550 -166 5331 -166 
Q 5213 -166 5070 -512 
Q 4928 -859 4808 -1329 
Q 4688 -1800 4623 -2114 
Q 4559 -2428 4469 -2900 
Q 4363 -3434 4292 -3831 
Q 4222 -4228 4122 -4812 
Q 4022 -5397 3926 -5925 
Q 3831 -6453 3700 -7116 
Q 3616 -7534 3456 -8292 
Q 3297 -9050 3245 -9278 
Q 3194 -9506 2983 -10393 
Q 2772 -11281 2759 -11334 
L 2681 -11628 
Q 2516 -12306 2348 -12820 
Q 2181 -13334 1857 -13778 
Q 1534 -14222 1069 -14222 
Q 791 -14222 575 -14034 
Q 359 -13847 359 -13575 
Q 359 -13434 453 -13340 
Q 547 -13247 684 -13247 
Q 775 -13247 848 -13290 
Q 922 -13334 964 -13409 
Q 1006 -13484 1006 -13575 
Q 1006 -13713 912 -13803 
Q 819 -13894 678 -13894 
z
" transform="scale(0.015625)"/>
      <path id="Cmr10-64" d="M 1563 -72 
Q 1184 -72 871 133 
Q 559 338 386 672 
Q 213 1006 213 1381 
Q 213 1769 402 2101 
Q 591 2434 916 2631 
Q 1241 2828 1631 2828 
Q 1866 2828 2075 2729 
Q 2284 2631 2438 2456 
L 2438 3788 
Q 2438 3959 2386 4036 
Q 2334 4113 2239 4130 
Q 2144 4147 1941 4147 
L 1941 4372 
L 2888 4441 
L 2888 581 
Q 2888 413 2939 336 
Q 2991 259 3086 242 
Q 3181 225 3384 225 
L 3384 0 
L 2419 -72 
L 2419 331 
Q 2253 141 2025 34 
Q 1797 -72 1563 -72 
z
M 909 556 
Q 1019 347 1201 222 
Q 1384 97 1600 97 
Q 1866 97 2087 250 
Q 2309 403 2419 647 
L 2419 2181 
Q 2344 2322 2230 2433 
Q 2116 2544 1973 2603 
Q 1831 2663 1672 2663 
Q 1338 2663 1134 2473 
Q 931 2284 850 1990 
Q 769 1697 769 1375 
Q 769 1119 795 928 
Q 822 738 909 556 
z
" transform="scale(0.015625)"/>
      <path id="Cmr10-2b" d="M 481 1472 
Q 428 1472 393 1512 
Q 359 1553 359 1600 
Q 359 1647 393 1687 
Q 428 1728 481 1728 
L 2363 1728 
L 2363 3616 
Q 2363 3666 2400 3698 
Q 2438 3731 2491 3731 
Q 2538 3731 2578 3698 
Q 2619 3666 2619 3616 
L 2619 1728 
L 4500 1728 
Q 4547 1728 4581 1687 
Q 4616 1647 4616 1600 
Q 4616 1553 4581 1512 
Q 4547 1472 4500 1472 
L 2619 1472 
L 2619 -416 
Q 2619 -466 2578 -498 
Q 2538 -531 2491 -531 
Q 2438 -531 2400 -498 
Q 2363 -466 2363 -416 
L 2363 1472 
L 481 1472 
z
" transform="scale(0.015625)"/>
      <path id="Cmsy10-a1" d="M 653 1472 
Q 600 1472 565 1512 
Q 531 1553 531 1600 
Q 531 1647 565 1687 
Q 600 1728 653 1728 
L 4325 1728 
Q 4375 1728 4408 1687 
Q 4441 1647 4441 1600 
Q 4441 1553 4408 1512 
Q 4375 1472 4325 1472 
L 653 1472 
z
" transform="scale(0.015625)"/>
      <path id="Cmr10-31" d="M 594 0 
L 594 225 
Q 1394 225 1394 428 
L 1394 3788 
Q 1063 3628 556 3628 
L 556 3853 
Q 1341 3853 1741 4263 
L 1831 4263 
Q 1853 4263 1873 4245 
Q 1894 4228 1894 4206 
L 1894 428 
Q 1894 225 2694 225 
L 2694 0 
L 594 0 
z
" transform="scale(0.015625)"/>
     </defs>
     <use xlink:href="#Cmmi10-61" transform="translate(0 0.990104)"/>
     <use xlink:href="#Cmmi10-62" transform="translate(52.783203 0.990104)"/>
     <use xlink:href="#Cmsy10-2219" transform="translate(137.64885 0.990104)"/>
     <use xlink:href="#Cmex10-5a" transform="translate(257.280121 145.432813)"/>
     <use xlink:href="#Cmmi10-61" transform="translate(365.880395 128.426563) scale(0.7)"/>
     <use xlink:href="#Cmr10-30" transform="translate(305.214457 -93.792187) scale(0.7)"/>
     <use xlink:href="#Cmmi10-66" transform="translate(402.828637 0.990104)"/>
     <use xlink:href="#Cmr10-28" transform="translate(451.70559 0.990104)"/>
     <use xlink:href="#Cmmi10-74" transform="translate(490.523949 0.990104)"/>
     <use xlink:href="#Cmr10-29" transform="translate(526.607934 0.990104)"/>
     <use xlink:href="#Cmr10-64" transform="translate(580.058747 0.990104)"/>
     <use xlink:href="#Cmmi10-74" transform="translate(635.576325 0.990104)"/>
     <use xlink:href="#Cmr10-2b" transform="translate(713.606034 0.990104)"/>
     <use xlink:href="#Cmex10-5a" transform="translate(833.237306 145.432813)"/>
     <use xlink:href="#Cmmi10-62" transform="translate(941.837579 128.426562) scale(0.7)"/>
     <use xlink:href="#Cmr10-30" transform="translate(881.171642 -93.792187) scale(0.7)"/>
     <use xlink:href="#Cmmi10-66" transform="translate(971.881524 0.990104)"/>
     <use xlink:href="#Cmsy10-a1" transform="translate(1032.590665 39.254167) scale(0.7)"/>
     <use xlink:href="#Cmr10-31" transform="translate(1086.970548 39.254167) scale(0.7)"/>
     <use xlink:href="#Cmr10-28" transform="translate(1128.347892 0.990104)"/>
     <use xlink:href="#Cmmi10-73" transform="translate(1167.166251 0.990104)"/>
     <use xlink:href="#Cmr10-29" transform="translate(1213.943595 0.990104)"/>
     <use xlink:href="#Cmr10-64" transform="translate(1267.394408 0.990104)"/>
     <use xlink:href="#Cmmi10-73" transform="translate(1322.911986 0.990104)"/>
    </g>
   </g>
   <g id="line2d_3">
    <path d="M 41.641644 248.109617 
L 42.116353 243.184048 
L 43.065771 239.041361 
L 44.015189 236.065552 
L 45.439316 232.47191 
L 46.863443 229.445481 
L 48.762279 225.935801 
L 51.135824 222.092999 
L 53.509369 218.659316 
L 56.357623 214.920884 
L 59.680585 210.946344 
L 63.478257 206.784818 
L 67.750638 202.471831 
L 72.497728 198.033518 
L 77.719527 193.489473 
L 83.416035 188.854678 
L 89.587252 184.140806 
L 96.233178 179.35711 
L 103.353813 174.511047 
L 110.949156 169.608713 
L 119.493918 164.371111 
L 128.513389 159.112964 
L 138.007569 153.83416 
L 148.451167 148.28803 
L 159.369473 142.741957 
L 171.237198 136.967134 
L 183.579632 131.20564 
L 196.871484 125.244846 
L 211.112753 119.104953 
L 226.303441 112.803543 
L 242.443547 106.355923 
L 259.53307 99.775439 
L 277.572012 93.073753 
L 296.560371 86.261078 
L 316.498149 79.346388 
L 325.992329 76.132247 
L 325.992329 76.132247 
" clip-path="url(#p2c13b09322)" style="fill: none; stroke: #000000; stroke-width: 2; stroke-linecap: square"/>
   </g>
   <g id="text_8">
    <!-- $s = f(t)$ -->
    <g transform="translate(210.10407 113.25056) rotate(-24) scale(0.11 -0.11)">
     <defs>
      <path id="Cmr10-3d" d="M 481 850 
Q 428 850 393 890 
Q 359 931 359 978 
Q 359 1031 393 1068 
Q 428 1106 481 1106 
L 4500 1106 
Q 4547 1106 4581 1068 
Q 4616 1031 4616 978 
Q 4616 931 4581 890 
Q 4547 850 4500 850 
L 481 850 
z
M 481 2094 
Q 428 2094 393 2131 
Q 359 2169 359 2222 
Q 359 2269 393 2309 
Q 428 2350 481 2350 
L 4500 2350 
Q 4547 2350 4581 2309 
Q 4616 2269 4616 2222 
Q 4616 2169 4581 2131 
Q 4547 2094 4500 2094 
L 481 2094 
z
" transform="scale(0.015625)"/>
     </defs>
     <use xlink:href="#Cmmi10-73"/>
     <use xlink:href="#Cmr10-3d" transform="translate(64.335938 0)"/>
     <use xlink:href="#Cmmi10-66" transform="translate(159.580078 0)"/>
     <use xlink:href="#Cmr10-28" transform="translate(208.457031 0)"/>
     <use xlink:href="#Cmmi10-74" transform="translate(247.275391 0)"/>
     <use xlink:href="#Cmr10-29" transform="translate(283.359375 0)"/>
    </g>
   </g>
   <g id="text_9">
    <!-- $\int_0^{\,a} f(t)\,\mathrm{d}t$ -->
    <g style="fill: #0a2a4a" transform="translate(116.191829 218.544227) scale(0.105 -0.105)">
     <use xlink:href="#Cmex10-5a" transform="translate(0 145.075)"/>
     <use xlink:href="#Cmmi10-61" transform="translate(118.842991 128.06875) scale(0.7)"/>
     <use xlink:href="#Cmr10-30" transform="translate(47.934336 -94.15) scale(0.7)"/>
     <use xlink:href="#Cmmi10-66" transform="translate(155.791233 0.632292)"/>
     <use xlink:href="#Cmr10-28" transform="translate(204.668187 0.632292)"/>
     <use xlink:href="#Cmmi10-74" transform="translate(243.486546 0.632292)"/>
     <use xlink:href="#Cmr10-29" transform="translate(279.57053 0.632292)"/>
     <use xlink:href="#Cmr10-64" transform="translate(333.021344 0.632292)"/>
     <use xlink:href="#Cmmi10-74" transform="translate(388.538922 0.632292)"/>
    </g>
   </g>
   <g id="text_10">
    <!-- $\int_0^{\,b} f^{-1}(s)\,\mathrm{d}s$ -->
    <g style="fill: #6b1a00" transform="translate(59.5001 231.422733) rotate(-90) scale(0.105 -0.105)">
     <use xlink:href="#Cmex10-5a" transform="translate(0 145.432813)"/>
     <use xlink:href="#Cmmi10-62" transform="translate(118.842991 128.426562) scale(0.7)"/>
     <use xlink:href="#Cmr10-30" transform="translate(47.934336 -93.792187) scale(0.7)"/>
     <use xlink:href="#Cmmi10-66" transform="translate(148.886937 0.990104)"/>
     <use xlink:href="#Cmsy10-a1" transform="translate(209.596077 39.254167) scale(0.7)"/>
     <use xlink:href="#Cmr10-31" transform="translate(263.97596 39.254167) scale(0.7)"/>
     <use xlink:href="#Cmr10-28" transform="translate(305.353304 0.990104)"/>
     <use xlink:href="#Cmmi10-73" transform="translate(344.171663 0.990104)"/>
     <use xlink:href="#Cmr10-29" transform="translate(390.949007 0.990104)"/>
     <use xlink:href="#Cmr10-64" transform="translate(444.39982 0.990104)"/>
     <use xlink:href="#Cmmi10-73" transform="translate(499.917399 0.990104)"/>
    </g>
   </g>
   <g id="patch_9">
    <path d="M 289.578522 138.904769 
Q 246.978269 153.492495 201.876715 137.894781 
" style="fill: none; stroke: #145214; stroke-width: 1.1; stroke-linecap: round"/>
    <path d="M 205.159679 141.252182 
L 201.876715 137.894781 
L 206.532414 137.28285 
" style="fill: none; stroke: #145214; stroke-width: 1.1; stroke-linecap: round"/>
   </g>
   <g id="text_11">
    <!-- $\int_0^{\,a} f + \int_0^{\,b} f^{-1} - ab$ -->
    <g style="fill: #145214" transform="translate(280.129315 126.057534) scale(0.105 -0.105)">
     <use xlink:href="#Cmex10-5a" transform="translate(0 145.432813)"/>
     <use xlink:href="#Cmmi10-61" transform="translate(118.842991 128.426563) scale(0.7)"/>
     <use xlink:href="#Cmr10-30" transform="translate(47.934336 -93.792187) scale(0.7)"/>
     <use xlink:href="#Cmmi10-66" transform="translate(155.791233 0.990104)"/>
     <use xlink:href="#Cmr10-2b" transform="translate(222.22678 0.990104)"/>
     <use xlink:href="#Cmex10-5a" transform="translate(317.470921 145.432813)"/>
     <use xlink:href="#Cmmi10-62" transform="translate(436.313912 128.426562) scale(0.7)"/>
     <use xlink:href="#Cmr10-30" transform="translate(365.405257 -93.792187) scale(0.7)"/>
     <use xlink:href="#Cmmi10-66" transform="translate(466.357858 0.990104)"/>
     <use xlink:href="#Cmsy10-a1" transform="translate(527.066998 39.254167) scale(0.7)"/>
     <use xlink:href="#Cmr10-31" transform="translate(581.446881 39.254167) scale(0.7)"/>
     <use xlink:href="#Cmsy10-a1" transform="translate(640.382819 0.990104)"/>
     <use xlink:href="#Cmmi10-61" transform="translate(735.626959 0.990104)"/>
     <use xlink:href="#Cmmi10-62" transform="translate(788.410162 0.990104)"/>
    </g>
   </g>
  </g>
 </g>
 <defs>
  <clipPath id="p2c13b09322">
   <rect x="18.710137" y="7.2" width="334.8" height="263.841124"/>
  </clipPath>
 </defs>
 <defs>
  <pattern id="h4928342c72" patternUnits="userSpaceOnUse" x="0" y="0" width="72" height="72">
   <rect x="0" y="0" width="73" height="73" fill="none"/>
   <path d="M -36 36 
L 36 -36 
M -32 40 
L 40 -32 
M -28 44 
L 44 -28 
M -24 48 
L 48 -24 
M -20 52 
L 52 -20 
M -16 56 
L 56 -16 
M -12 60 
L 60 -12 
M -8 64 
L 64 -8 
M -4 68 
L 68 -4 
M 0 72 
L 72 0 
M 4 76 
L 76 4 
M 8 80 
L 80 8 
M 12 84 
L 84 12 
M 16 88 
L 88 16 
M 20 92 
L 92 20 
M 24 96 
L 96 24 
M 28 100 
L 100 28 
M 32 104 
L 104 32 
M 36 108 
L 108 36 
" style="fill: #1a6e1a; stroke: #1a6e1a; stroke-width: 1.0; stroke-linecap: butt; stroke-linejoin: miter; stroke-opacity: 0.7"/>
  </pattern>
 </defs>
</svg>
